<?xml version="1.0" encoding="UTF-8"?>
<svg id="_Шар_1" xmlns="http://www.w3.org/2000/svg" version="1.1" viewBox="890 15 450 490">
  <!-- Generator: Adobe Illustrator 30.3.0, SVG Export Plug-In . SVG Version: 2.1.3 Build 182)  -->
  <defs>
    <style>
      .st0 {
        fill: #eadbce;
      }

      .st1 {
        fill: #fff;
      }

      .st2 {
        fill: #e30613;
      }

      .st3 {
        fill: #bde4fa;
      }

      .st4 {
        fill: #cccaa4;
      }

      .st5 {
        fill: #1d1d1b;
      }

      .st6 {
        fill: #c2dfc4;
      }

      .st7 {
        fill: #ededed;
      }

      .st8 {
        fill: #dcc1ae;
      }
    </style>
  </defs>
  <polygon class="st0" points="285.2 319.4 258.9 319.4 258.9 286.2 184.8 286.2 184.8 292.3 146.1 292.3 185.5 326.1 185.5 396.9 258.9 395.8 258.9 388.7 285.2 388.7 285.2 319.4"/>
  <rect class="st8" x="998.7" y="215.5" width="85.9" height="53.9"/>
  <rect class="st0" x="956.4" y="83.9" width="311.1" height="131.6"/>
  <polygon class="st0" points="1267.5 387.9 956.4 387.9 956.4 343.6 996.6 345.5 998.7 269.4 1267.5 269.4 1267.5 387.9"/>
  <rect class="st3" x="1084.6" y="218.7" width="181.4" height="48.5"/>
  <rect class="st8" x="598.7" y="215.5" width="70.8" height="167.4"/>
  <rect class="st8" x="665.9" y="215.5" width="200.6" height="63.3"/>
  <rect class="st0" x="557.4" y="85.6" width="309.2" height="129.9"/>
  <rect class="st3" x="669.5" y="279.2" width="196.7" height="106.7"/>
  <rect class="st6" x="262.6" y="280.2" width="193.4" height="40.5"/>
  <rect class="st6" x="285.6" y="315.5" width="172.9" height="76.7"/>
  <rect class="st3" x="149.7" y="208.6" width="33.1" height="85.3"/>
  <polygon class="st6" points="462.5 286.2 181.6 286.2 181.9 208.3 147.6 209.4 151.6 93.7 156 76 462.5 76 462.5 286.2"/>
  <path class="st5" d="M174.4,291.8h-14.9v-6.6h14.9v6.6ZM160.5,290.8h12.9v-4.6h-12.9v4.6Z"/>
  <path class="st5" d="M174.4,286.2h-14.9v-13.9c0-4.1,3.3-7.4,7.4-7.4s7.4,3.3,7.4,7.4v13.9h.1ZM160.5,285.2h12.9v-12.9c0-3.5-2.9-6.4-6.4-6.4s-6.4,2.9-6.4,6.4v12.9h-.1Z"/>
  <path class="st5" d="M173.2,230.5h-9.5c-2.3,0-4.2-1.9-4.2-4.2v-10.6h17.8v10.6c0,2.3-1.9,4.2-4.2,4.2h0ZM160.5,216.7v9.6c0,1.7,1.4,3.2,3.2,3.2h9.5c1.7,0,3.2-1.4,3.2-3.2v-9.6h-15.9Z"/>
  <rect class="st5" x="167.9" y="216.2" width="1" height="10.5"/>
  <rect class="st5" x="165.3" y="222.2" width="6.5" height="1"/>
  <path class="st5" d="M858.5,309.3h-6.6v-14.9h6.6v14.9ZM852.9,308.3h4.6v-12.9h-4.6v12.9Z"/>
  <path class="st5" d="M852.9,309.3h-13.9c-4.1,0-7.4-3.3-7.4-7.4s3.3-7.4,7.4-7.4h13.9v14.9h0ZM839,295.4c-3.5,0-6.4,2.9-6.4,6.4s2.9,6.4,6.4,6.4h12.9v-12.9h-12.9Z"/>
  <path class="st5" d="M858.5,336.9h-6.6v-14.9h6.6v14.9ZM852.9,335.9h4.6v-12.9h-4.6v12.9Z"/>
  <path class="st5" d="M852.9,336.9h-13.9c-4.1,0-7.4-3.3-7.4-7.4s3.3-7.4,7.4-7.4h13.9v14.9h0ZM839,323c-3.5,0-6.4,2.9-6.4,6.4s2.9,6.4,6.4,6.4h12.9v-12.9h-12.9Z"/>
  <path class="st5" d="M863.6,378.2h-13.6c-2.9,0-5.3-2.4-5.3-5.3v-12.7c0-2.9,2.4-5.3,5.3-5.3h13.6v23.3ZM850.1,355.9c-2.4,0-4.3,1.9-4.3,4.3v12.7c0,2.4,1.9,4.3,4.3,4.3h12.6v-21.3h-12.6Z"/>
  <rect class="st5" x="849.5" y="366.1" width="13.6" height="1"/>
  <rect class="st5" x="854.2" y="362.3" width="1" height="8.6"/>
  <rect class="st5" x="845.5" y="328.9" width="12.4" height="1"/>
  <rect class="st5" x="850.2" y="325.1" width="1" height="8.6"/>
  <path class="st5" d="M317.4,379.9h-19.1v-16.7h19.1v16.7ZM299.4,378.9h17.1v-14.7h-17.1v14.7Z"/>
  <rect class="st5" x="307.4" y="370" width="1" height="13.7"/>
  <rect class="st5" x="304.5" y="373.8" width="6.5" height="1"/>
  <path class="st5" d="M456.4,338h-22v-26h22v26ZM435.4,337h20v-24h-20v24Z"/>
  <path class="st5" d="M456.4,383.4h-172.4v-25h150.3v-72.6h22v97.6h.1ZM285,382.4h170.4v-95.6h-20v72.6h-150.3v23h0Z"/>
  <path class="st5" d="M440.2,321.6c-2.1,0-3.8-1.7-3.8-3.8s1.7-3.8,3.8-3.8,3.8,1.7,3.8,3.8-1.7,3.8-3.8,3.8ZM440.2,315.1c-1.5,0-2.8,1.2-2.8,2.8s1.2,2.8,2.8,2.8,2.8-1.2,2.8-2.8-1.2-2.8-2.8-2.8Z"/>
  <path class="st5" d="M449.3,319.9c-1.5,0-2.7-1.2-2.7-2.7s1.2-2.7,2.7-2.7,2.7,1.2,2.7,2.7-1.2,2.7-2.7,2.7ZM449.3,315.4c-1,0-1.7.8-1.7,1.7s.8,1.7,1.7,1.7,1.7-.8,1.7-1.7-.8-1.7-1.7-1.7Z"/>
  <path class="st5" d="M450.7,336.3c-2.1,0-3.8-1.7-3.8-3.8s1.7-3.8,3.8-3.8,3.8,1.7,3.8,3.8-1.7,3.8-3.8,3.8ZM450.7,329.8c-1.5,0-2.8,1.2-2.8,2.8s1.2,2.8,2.8,2.8,2.8-1.2,2.8-2.8-1.2-2.8-2.8-2.8Z"/>
  <path class="st5" d="M441.7,336c-1.5,0-2.7-1.2-2.7-2.7s1.2-2.7,2.7-2.7,2.7,1.2,2.7,2.7-1.2,2.7-2.7,2.7ZM441.7,331.5c-1,0-1.7.8-1.7,1.7s.8,1.7,1.7,1.7,1.7-.8,1.7-1.7-.8-1.7-1.7-1.7Z"/>
  <polygon class="st5" points="435.3 335.5 434.5 334.8 445.9 320.3 445.9 327.8 455.5 315.6 456.3 316.2 444.9 330.7 444.9 323.2 435.3 335.5"/>
  <rect class="st5" x="141" y="80.3" width="13.1" height="315.5"/>
  <rect class="st5" x="455.9" y="80.3" width="13.1" height="315.5"/>
  <rect class="st5" x="548.9" y="80.3" width="13.1" height="315.5"/>
  <rect class="st5" x="154.2" y="76" width="31.3" height="15.7"/>
  <g>
    <rect class="st1" x="219.5" y="76.5" width="64.9" height="14.7"/>
    <path class="st5" d="M283.8,77v13.7h-63.9v-13.7h63.9M284.8,76h-65.9v15.7h65.9v-15.7h0Z"/>
  </g>
  <rect class="st5" x="284.8" y="76" width="184.2" height="15.7"/>
  <rect class="st5" x="548.9" y="76" width="93" height="15.7"/>
  <rect class="st5" x="863.1" y="80.3" width="13.1" height="315.5"/>
  <rect class="st5" x="709.2" y="76" width="167.1" height="15.7"/>
  <g>
    <rect class="st1" x="642.4" y="76.5" width="66.3" height="14.7"/>
    <path class="st5" d="M708.2,77v13.7h-65.3v-13.7h65.3M709.2,76h-67.3v15.7h67.3v-15.7h0Z"/>
  </g>
  <rect class="st5" x="141" y="382.9" width="49.8" height="12.9"/>
  <rect class="st5" x="548.9" y="382.9" width="49.8" height="12.9"/>
  <rect class="st5" x="548.9" y="212.3" width="54.6" height="6.5"/>
  <rect class="st5" x="548.9" y="202.1" width="35" height="10.1"/>
  <g>
    <rect class="st1" x="599.2" y="383.4" width="59.4" height="11.9"/>
    <path class="st5" d="M658.1,383.9v10.9h-58.4v-10.9h58.4M659.1,382.9h-60.4v12.9h60.4v-12.9h0Z"/>
  </g>
  <g>
    <rect class="st1" x="771.7" y="383.4" width="59.4" height="11.9"/>
    <path class="st5" d="M830.6,383.9v10.9h-58.4v-10.9h58.4M831.6,382.9h-60.4v12.9h60.4v-12.9h0Z"/>
  </g>
  <rect class="st5" x="831" y="382.9" width="45.2" height="12.9"/>
  <rect class="st5" x="256.6" y="382.9" width="35.4" height="12.9"/>
  <g>
    <rect class="st1" x="292.5" y="383.4" width="30.9" height="11.9"/>
    <path class="st5" d="M322.8,383.9v10.9h-29.9v-10.9h29.9M323.8,382.9h-31.9v12.9h31.9v-12.9h0Z"/>
  </g>
  <rect class="st5" x="323.9" y="382.9" width="136.1" height="12.9"/>
  <polygon class="st5" points="287 314.4 277.1 301.9 277.1 309.5 264.5 293.4 265.3 292.8 276.1 306.6 276.1 299.1 287.8 313.8 287 314.4"/>
  <rect class="st5" x="258.9" y="285.7" width="6.5" height="36.7"/>
  <rect class="st5" x="262.1" y="285.7" width="25.8" height="8.3"/>
  <rect class="st5" x="262.6" y="317.2" width="25.3" height="5.2"/>
  <rect class="st5" x="282.4" y="322.4" width="5.5" height="63.4"/>
  <rect class="st5" x="154.2" y="291.3" width="32" height="6.6"/>
  <rect class="st5" x="179.6" y="257.3" width="6.6" height="34"/>
  <rect class="st5" x="154.2" y="201.1" width="32" height="15.1"/>
  <rect class="st5" x="179.6" y="216.2" width="6.6" height="14.4"/>
  <g>
    <rect class="st4" x="179.6" y="395.3" width="90.5" height="50.1"/>
    <path class="st5" d="M270.5,445.9h-91.5v-51.1h91.5v51.1ZM180.1,444.9h89.5v-49.1h-89.5v49.1Z"/>
  </g>
  <rect class="st5" x="202.9" y="386.9" width="1" height="36.5" transform="translate(-242.2 321.4) rotate(-52.7)"/>
  <rect class="st5" x="258.9" y="322.4" width="1" height="61.2"/>
  <rect class="st5" x="185.1" y="297.8" width="1" height="10.1"/>
  <polygon class="st5" points="189.3 348 185.1 348 185.1 314.9 186.1 314.9 186.1 347 189.3 347 189.3 348"/>
  <rect class="st5" x="168.7" y="290.2" width="1" height="43.3" transform="translate(-177.5 236.7) rotate(-49.3)"/>
  <rect class="st5" x="151.6" y="307.4" width="12.8" height="1"/>
  <rect class="st5" x="154.2" y="317.3" width="21.8" height="1"/>
  <rect class="st5" x="154.2" y="327.5" width="32" height="1"/>
  <rect class="st5" x="149.6" y="337.3" width="37.2" height="1" transform="translate(-102.7 75) rotate(-19.4)"/>
  <rect class="st5" x="150.2" y="346.1" width="38.1" height="1" transform="translate(-151 131.6) rotate(-30.1)"/>
  <rect class="st5" x="146.7" y="356.9" width="45.2" height="1" transform="translate(-201.2 219.2) rotate(-44.2)"/>
  <rect class="st5" x="153.7" y="365.4" width="43.2" height="1" transform="translate(-229.8 343.2) rotate(-61.2)"/>
  <g>
    <path class="st5" d="M188.6,368.9c-7.4,0-12.6-1.7-16.2-5.3-6.2-6.2-6.1-17-6-29.4v-3.1h1v3.1c0,12.2-.1,22.8,5.7,28.7,3.3,3.3,8.4,5,15.5,5v1h0Z"/>
    <polygon class="st5" points="171 334.5 170.3 335.2 166.9 331.5 163.5 335.1 162.8 334.4 166.9 330.1 171 334.5"/>
  </g>
  <rect class="st5" x="186.1" y="285.7" width="72.8" height="1"/>
  <rect class="st5" x="287.9" y="285.7" width="169.5" height="1"/>
  <path class="st5" d="M493,389.8h-1v-1h1v1ZM487,389.8h-4v-1h4v1ZM483,389.8h-4v-1h4v1ZM474,389.8h-1v-1h1v1ZM468,389.8h-4v-1h4v1ZM464,389.8h-4v-1h4v1ZM455,389.8h-1v-1h1v1ZM449,389.8h-4v-1h4v1ZM445,389.8h-4v-1h4v1ZM436,389.8h-1v-1h1v1ZM430,389.8h-4v-1h4v1ZM426,389.8h-4v-1h4v1ZM417,389.8h-1v-1h1v1ZM411,389.8h-4v-1h4v1ZM407,389.8h-4v-1h4v1ZM398,389.8h-1v-1h1v1ZM392,389.8h-4v-1h4v1ZM388,389.8h-4v-1h4v1ZM379,389.8h-1v-1h1v1ZM373,389.8h-4v-1h4v1ZM369,389.8h-4v-1h4v1ZM360,389.8h-1v-1h1v1ZM354,389.8h-4v-1h4v1ZM350,389.8h-4v-1h4v1ZM341,389.8h-1v-1h1v1ZM335,389.8h-4v-1h4v1ZM331,389.8h-4v-1h4v1ZM322,389.8h-1v-1h1v1ZM316,389.8h-4v-1h4v1ZM312,389.8h-4v-1h4v1ZM303,389.8h-1v-1h1v1ZM297,389.8h-4v-1h4v1ZM293,389.8h-4v-1h4v1ZM284,389.8h-1v-1h1v1ZM278,389.8h-4v-1h4v1ZM274,389.8h-4v-1h4v1ZM265,389.8h-1v-1h1v1ZM259,389.8h-4v-1h4v1ZM255,389.8h-4v-1h4v1ZM246,389.8h-1v-1h1v1ZM240,389.8h-4v-1h4v1ZM236,389.8h-4v-1h4v1ZM227,389.8h-1v-1h1v1ZM221,389.8h-4v-1h4v1ZM217,389.8h-4v-1h4v1ZM208,389.8h-1v-1h1v1ZM202,389.8h-4v-1h4v1ZM198,389.8h-4v-1h4v1ZM189,389.8h-1v-1h1v1ZM183,389.8h-4v-1h4v1ZM179,389.8h-4v-1h4v1ZM170,389.8h-1v-1h1v1ZM164,389.8h-4v-1h4v1ZM160,389.8h-4v-1h4v1ZM151,389.8h-1v-1h1v1ZM145,389.8h-4v-1h4v1ZM141,389.8h-4v-1h4v1ZM132,389.8h-1v-1h1v1ZM126,389.8h-4v-1h4v1ZM122,389.8h-4v-1h4v1ZM113,389.8h-1v-1h1v1ZM107,389.8h-4v-1h4v1ZM103,389.8h-4v-1h4v1ZM94,389.8h-1v-1h1v1ZM88,389.8h-4v-1h4v1ZM84,389.8h-4v-1h4v1ZM75,389.8h-1v-1h1v1ZM69,389.8h-4v-1h4v1Z"/>
  <rect class="st5" x="192.1" y="226.8" width="1" height="29.3" transform="translate(-95.5 130.1) rotate(-30.3)"/>
  <rect class="st5" x="179.1" y="91.7" width="1" height="105.5"/>
  <rect class="st5" x="154.2" y="196.7" width="3.7" height="1"/>
  <rect class="st5" x="162.9" y="196.7" width="4.1" height="1"/>
  <polygon class="st5" points="186.1 201.1 185.1 201.1 185.1 197.7 171 197.7 171 196.7 186.1 196.7 186.1 201.1"/>
  <polygon class="st5" points="193.8 214.2 186.7 207.2 193.8 200.2 193.8 214.2"/>
  <path class="st5" d="M485.5,84.4h-4v-1h4v1ZM481.5,84.4h-4v-1h4v1ZM472.5,84.4h-1v-1h1v1ZM466.5,84.4h-4v-1h4v1ZM462.5,84.4h-4v-1h4v1ZM453.5,84.4h-1v-1h1v1ZM447.5,84.4h-4v-1h4v1ZM443.5,84.4h-4v-1h4v1ZM434.5,84.4h-1v-1h1v1ZM428.5,84.4h-4v-1h4v1ZM424.5,84.4h-4v-1h4v1ZM415.5,84.4h-1v-1h1v1ZM409.5,84.4h-4v-1h4v1ZM405.5,84.4h-4v-1h4v1ZM396.5,84.4h-1v-1h1v1ZM390.5,84.4h-4v-1h4v1ZM386.5,84.4h-4v-1h4v1ZM377.5,84.4h-1v-1h1v1ZM371.5,84.4h-4v-1h4v1ZM367.5,84.4h-4v-1h4v1ZM358.5,84.4h-1v-1h1v1ZM352.5,84.4h-4v-1h4v1ZM348.5,84.4h-4v-1h4v1ZM339.5,84.4h-1v-1h1v1ZM333.5,84.4h-4v-1h4v1ZM329.5,84.4h-4v-1h4v1ZM320.5,84.4h-1v-1h1v1ZM314.5,84.4h-4v-1h4v1ZM310.5,84.4h-4v-1h4v1ZM301.5,84.4h-1v-1h1v1ZM295.5,84.4h-4v-1h4v1ZM291.5,84.4h-4v-1h4v1ZM282.5,84.4h-1v-1h1v1ZM276.5,84.4h-4v-1h4v1ZM272.5,84.4h-4v-1h4v1ZM263.5,84.4h-1v-1h1v1ZM257.5,84.4h-4v-1h4v1ZM253.5,84.4h-4v-1h4v1ZM244.5,84.4h-1v-1h1v1ZM238.5,84.4h-4v-1h4v1ZM234.5,84.4h-4v-1h4v1ZM225.5,84.4h-1v-1h1v1ZM219.5,84.4h-4v-1h4v1ZM215.5,84.4h-4v-1h4v1ZM206.5,84.4h-1v-1h1v1ZM200.5,84.4h-4v-1h4v1ZM196.5,84.4h-4v-1h4v1ZM187.5,84.4h-1v-1h1v1ZM181.5,84.4h-4v-1h4v1Z"/>
  <rect class="st5" x="198.2" y="82.4" width="1" height="34.2" transform="translate(11.1 218.5) rotate(-59)"/>
  <rect class="st5" x="65" y="83.4" width="85.5" height="1"/>
  <rect class="st5" x="65" y="388.8" width="85.5" height="1"/>
  <path class="st5" d="M130.7,289h-1v-4h1v4ZM130.7,285h-1v-4h1v4ZM130.7,276h-1v-1h1v1ZM130.7,270h-1v-4h1v4ZM130.7,266h-1v-4h1v4ZM130.7,257h-1v-1h1v1ZM130.7,251h-1v-4h1v4ZM130.7,247h-1v-4h1v4ZM130.7,238h-1v-1h1v1ZM130.7,232h-1v-4h1v4ZM130.7,228h-1v-4h1v4ZM130.7,219h-1v-1h1v1ZM130.7,213h-1v-4h1v4ZM130.7,209h-1v-4h1v4ZM130.7,200h-1v-1h1v1ZM130.7,194h-1v-4h1v4ZM130.7,190h-1v-4h1v4ZM130.7,181h-1v-1h1v1ZM130.7,175h-1v-4h1v4ZM130.7,171h-1v-4h1v4ZM130.7,162h-1v-1h1v1ZM130.7,156h-1v-4h1v4ZM130.7,152h-1v-4h1v4ZM130.7,143h-1v-1h1v1ZM130.7,137h-1v-4h1v4ZM130.7,133h-1v-4h1v4ZM130.7,124h-1v-1h1v1ZM130.7,118h-1v-4h1v4ZM130.7,114h-1v-4h1v4ZM130.7,105h-1v-1h1v1ZM130.7,99h-1v-4h1v4ZM130.7,95h-1v-4h1v4ZM130.7,86h-1v-1h1v1ZM130.7,80h-1v-4h1v4Z"/>
  <g>
    <rect class="st5" x="130.2" y="264.8" width="2.5" height="1"/>
    <rect class="st5" x="138.5" y="264.8" width="2.5" height="1"/>
  </g>
  <g>
    <rect class="st5" x="130.2" y="278.7" width="2.5" height="1"/>
    <rect class="st5" x="138.5" y="278.7" width="2.5" height="1"/>
  </g>
  <g>
    <rect class="st5" x="469.1" y="170.6" width="2.5" height="1"/>
    <path class="st5" d="M492.2,171.6h-5.7v-1h5.7v1ZM481.9,171.6h-5.7v-1h5.7v1Z"/>
    <rect class="st5" x="496.8" y="170.6" width="2.5" height="1"/>
  </g>
  <g>
    <rect class="st5" x="469.1" y="184.2" width="2.5" height="1"/>
    <path class="st5" d="M492.2,185.2h-5.7v-1h5.7v1ZM481.9,185.2h-5.7v-1h5.7v1Z"/>
    <rect class="st5" x="496.8" y="184.2" width="2.5" height="1"/>
  </g>
  <g>
    <rect class="st5" x="875.4" y="170.6" width="2.5" height="1"/>
    <path class="st5" d="M898.6,171.6h-5.7v-1h5.7v1ZM888.2,171.6h-5.7v-1h5.7v1Z"/>
    <rect class="st5" x="903.1" y="170.6" width="2.5" height="1"/>
  </g>
  <g>
    <rect class="st5" x="875.4" y="184.2" width="2.5" height="1"/>
    <path class="st5" d="M898.6,185.2h-5.7v-1h5.7v1ZM888.2,185.2h-5.7v-1h5.7v1Z"/>
    <rect class="st5" x="903.1" y="184.2" width="2.5" height="1"/>
  </g>
  <path class="st5" d="M495.5,451h-1v-1h1v1ZM495.5,445h-1v-4h1v4ZM495.5,441h-1v-4h1v4ZM495.5,432h-1v-1h1v1ZM495.5,426h-1v-4h1v4ZM495.5,422h-1v-4h1v4ZM495.5,413h-1v-1h1v1ZM495.5,407h-1v-4h1v4ZM495.5,403h-1v-4h1v4ZM495.5,394h-1v-1h1v1ZM495.5,388h-1v-4h1v4ZM495.5,384h-1v-4h1v4ZM495.5,375h-1v-1h1v1ZM495.5,369h-1v-4h1v4ZM495.5,365h-1v-4h1v4ZM495.5,356h-1v-1h1v1ZM495.5,350h-1v-4h1v4ZM495.5,346h-1v-4h1v4ZM495.5,337h-1v-1h1v1ZM495.5,331h-1v-4h1v4ZM495.5,327h-1v-4h1v4ZM495.5,318h-1v-1h1v1ZM495.5,312h-1v-4h1v4ZM495.5,308h-1v-4h1v4ZM495.5,299h-1v-1h1v1ZM495.5,293h-1v-4h1v4ZM495.5,289h-1v-4h1v4ZM495.5,280h-1v-1h1v1ZM495.5,274h-1v-4h1v4ZM495.5,270h-1v-4h1v4ZM495.5,261h-1v-1h1v1ZM495.5,255h-1v-4h1v4ZM495.5,251h-1v-4h1v4ZM495.5,242h-1v-1h1v1ZM495.5,236h-1v-4h1v4ZM495.5,232h-1v-4h1v4ZM495.5,223h-1v-1h1v1ZM495.5,217h-1v-4h1v4ZM495.5,213h-1v-4h1v4ZM495.5,204h-1v-1h1v1ZM495.5,198h-1v-4h1v4ZM495.5,194h-1v-4h1v4ZM495.5,185h-1v-1h1v1ZM495.5,179h-1v-4h1v4ZM495.5,175h-1v-4h1v4ZM495.5,166h-1v-1h1v1ZM495.5,160h-1v-4h1v4Z"/>
  <path class="st5" d="M148.1,481.8h-1v-1h1v1ZM148.1,475.8h-1v-4h1v4ZM148.1,471.8h-1v-4h1v4ZM148.1,462.8h-1v-1h1v1ZM148.1,456.8h-1v-4h1v4ZM148.1,452.8h-1v-4h1v4ZM148.1,443.8h-1v-1h1v1ZM148.1,437.8h-1v-4h1v4ZM148.1,433.8h-1v-4h1v4ZM148.1,424.8h-1v-1h1v1ZM148.1,418.8h-1v-4h1v4ZM148.1,414.8h-1v-4h1v4ZM148.1,405.8h-1v-1h1v1ZM148.1,399.8h-1v-4h1v4Z"/>
  <path class="st5" d="M460.8,481.8h-1v-1h1v1ZM460.8,475.8h-1v-4h1v4ZM460.8,471.8h-1v-4h1v4ZM460.8,462.8h-1v-1h1v1ZM460.8,456.8h-1v-4h1v4ZM460.8,452.8h-1v-4h1v4ZM460.8,443.8h-1v-1h1v1ZM460.8,437.8h-1v-4h1v4ZM460.8,433.8h-1v-4h1v4ZM460.8,424.8h-1v-1h1v1ZM460.8,418.8h-1v-4h1v4ZM460.8,414.8h-1v-4h1v4ZM460.8,405.8h-1v-1h1v1ZM460.8,399.8h-1v-4h1v4Z"/>
  <rect class="st5" x="147.6" y="476.7" width="312.7" height="1"/>
  <rect class="st5" x="555.4" y="476.7" width="314" height="1"/>
  <rect class="st5" x="286.9" y="294" width="1" height="24.7"/>
  <rect class="st5" x="72.8" y="76" width="1" height="319.8"/>
  <rect class="st5" x="106.7" y="76" width="1" height="319.8"/>
  <g>
    <polygon class="st5" points="471.6 431.2 468.6 431.2 468.6 428.2 469.6 428.2 469.6 430.2 471.6 430.2 471.6 431.2"/>
    <path class="st5" d="M469.6,424.3h-1v-4.8h1v4.8ZM469.6,415.6h-1v-4.8h1v4.8ZM469.6,407h-1v-4.8h1v4.8Z"/>
    <polygon class="st5" points="469.6 398.3 468.6 398.3 468.6 396.3 466.6 396.3 466.6 395.3 469.6 395.3 469.6 398.3"/>
    <rect class="st5" x="458.2" y="395.3" width="4.6" height="1"/>
    <polygon class="st5" points="452.5 398.3 451.5 398.3 451.5 395.3 454.5 395.3 454.5 396.3 452.5 396.3 452.5 398.3"/>
    <path class="st5" d="M452.5,440.8h-1v-4.7h1v4.7ZM452.5,432.3h-1v-4.7h1v4.7ZM452.5,423.8h-1v-4.7h1v4.7ZM452.5,415.3h-1v-4.7h1v4.7ZM452.5,406.8h-1v-4.7h1v4.7Z"/>
    <polygon class="st5" points="454.5 447.5 451.5 447.5 451.5 444.5 452.5 444.5 452.5 446.5 454.5 446.5 454.5 447.5"/>
    <path class="st5" d="M488.7,447.5h-4.8v-1h4.8v1ZM480.2,447.5h-4.8v-1h4.8v1ZM471.6,447.5h-4.8v-1h4.8v1ZM463,447.5h-4.8v-1h4.8v1Z"/>
    <polygon class="st5" points="495.5 447.5 492.5 447.5 492.5 446.5 494.5 446.5 494.5 444.5 495.5 444.5 495.5 447.5"/>
    <rect class="st5" x="494.5" y="436.7" width="1" height="4.4"/>
    <polygon class="st5" points="495.5 433.2 494.5 433.2 494.5 431.2 492.5 431.2 492.5 430.2 495.5 430.2 495.5 433.2"/>
    <path class="st5" d="M488.7,431.2h-4.8v-1h4.8v1ZM480.1,431.2h-4.8v-1h4.8v1Z"/>
  </g>
  <path class="st5" d="M901.5,451h-1v-1h1v1ZM901.5,445h-1v-4h1v4ZM901.5,441h-1v-4h1v4ZM901.5,432h-1v-1h1v1ZM901.5,426h-1v-4h1v4ZM901.5,422h-1v-4h1v4ZM901.5,413h-1v-1h1v1ZM901.5,407h-1v-4h1v4ZM901.5,403h-1v-4h1v4ZM901.5,394h-1v-1h1v1ZM901.5,388h-1v-4h1v4ZM901.5,384h-1v-4h1v4ZM901.5,375h-1v-1h1v1ZM901.5,369h-1v-4h1v4ZM901.5,365h-1v-4h1v4ZM901.5,356h-1v-1h1v1ZM901.5,350h-1v-4h1v4ZM901.5,346h-1v-4h1v4ZM901.5,337h-1v-1h1v1ZM901.5,331h-1v-4h1v4ZM901.5,327h-1v-4h1v4ZM901.5,318h-1v-1h1v1ZM901.5,312h-1v-4h1v4ZM901.5,308h-1v-4h1v4ZM901.5,299h-1v-1h1v1ZM901.5,293h-1v-4h1v4ZM901.5,289h-1v-4h1v4ZM901.5,280h-1v-1h1v1ZM901.5,274h-1v-4h1v4ZM901.5,270h-1v-4h1v4ZM901.5,261h-1v-1h1v1ZM901.5,255h-1v-4h1v4ZM901.5,251h-1v-4h1v4ZM901.5,242h-1v-1h1v1ZM901.5,236h-1v-4h1v4ZM901.5,232h-1v-4h1v4ZM901.5,223h-1v-1h1v1ZM901.5,217h-1v-4h1v4ZM901.5,213h-1v-4h1v4ZM901.5,204h-1v-1h1v1ZM901.5,198h-1v-4h1v4ZM901.5,194h-1v-4h1v4ZM901.5,185h-1v-1h1v1ZM901.5,179h-1v-4h1v4ZM901.5,175h-1v-4h1v4ZM901.5,166h-1v-1h1v1ZM901.5,160h-1v-4h1v4Z"/>
  <g>
    <polygon class="st5" points="877.6 431.2 874.6 431.2 874.6 428.2 875.6 428.2 875.6 430.2 877.6 430.2 877.6 431.2"/>
    <path class="st5" d="M875.6,424.3h-1v-4.8h1v4.8ZM875.6,415.6h-1v-4.8h1v4.8ZM875.6,407h-1v-4.8h1v4.8Z"/>
    <polygon class="st5" points="875.6 398.3 874.6 398.3 874.6 396.3 872.6 396.3 872.6 395.3 875.6 395.3 875.6 398.3"/>
    <rect class="st5" x="864.2" y="395.3" width="4.6" height="1"/>
    <polygon class="st5" points="858.5 398.3 857.5 398.3 857.5 395.3 860.5 395.3 860.5 396.3 858.5 396.3 858.5 398.3"/>
    <path class="st5" d="M858.5,440.8h-1v-4.7h1v4.7ZM858.5,432.3h-1v-4.7h1v4.7ZM858.5,423.8h-1v-4.7h1v4.7ZM858.5,415.3h-1v-4.7h1v4.7ZM858.5,406.8h-1v-4.7h1v4.7Z"/>
    <polygon class="st5" points="860.5 447.5 857.5 447.5 857.5 444.5 858.5 444.5 858.5 446.5 860.5 446.5 860.5 447.5"/>
    <path class="st5" d="M894.7,447.5h-4.8v-1h4.8v1ZM886.2,447.5h-4.8v-1h4.8v1ZM877.6,447.5h-4.8v-1h4.8v1ZM869,447.5h-4.8v-1h4.8v1Z"/>
    <polygon class="st5" points="901.5 447.5 898.5 447.5 898.5 446.5 900.5 446.5 900.5 444.5 901.5 444.5 901.5 447.5"/>
    <rect class="st5" x="900.5" y="436.7" width="1" height="4.4"/>
    <polygon class="st5" points="901.5 433.2 900.5 433.2 900.5 431.2 898.5 431.2 898.5 430.2 901.5 430.2 901.5 433.2"/>
    <path class="st5" d="M894.7,431.2h-4.8v-1h4.8v1ZM886.1,431.2h-4.8v-1h4.8v1Z"/>
  </g>
  <path class="st5" d="M165.4,212.4c-1.6,0-3-1.3-3-3s1.3-3,3-3,3,1.3,3,3-1.3,3-3,3ZM165.4,207.5c-1.1,0-2,.9-2,2s.9,2,2,2,2-.9,2-2-.9-2-2-2Z"/>
  <path class="st5" d="M156.6,212.4c-1.6,0-3-1.3-3-3s1.3-3,3-3,3,1.3,3,3-1.3,3-3,3ZM156.6,207.5c-1.1,0-2,.9-2,2s.9,2,2,2,2-.9,2-2-.9-2-2-2Z"/>
  <path class="st5" d="M175,212.4c-1.6,0-3-1.3-3-3s1.3-3,3-3,3,1.3,3,3-1.3,3-3,3ZM175,207.5c-1.1,0-2,.9-2,2s.9,2,2,2,2-.9,2-2-.9-2-2-2Z"/>
  <path class="st5" d="M564.6,212.4c-1.6,0-3-1.3-3-3s1.3-3,3-3,3,1.3,3,3-1.3,3-3,3ZM564.6,207.5c-1.1,0-2,.9-2,2s.9,2,2,2,2-.9,2-2-.9-2-2-2Z"/>
  <path class="st5" d="M574.2,212.4c-1.6,0-3-1.3-3-3s1.3-3,3-3,3,1.3,3,3-1.3,3-3,3ZM574.2,207.5c-1.1,0-2,.9-2,2s.9,2,2,2,2-.9,2-2-.9-2-2-2Z"/>
  <rect class="st5" x="582.9" y="91.7" width="1" height="112.5"/>
  <rect class="st5" x="598.2" y="205.2" width="37" height="1" transform="translate(-25.8 304.7) rotate(-27.2)"/>
  <rect class="st5" x="598.2" y="218.7" width="1" height="164.2"/>
  <path class="st5" d="M599.2,351.2h-5.1v-96.9h5.1v96.9ZM595.1,350.2h3.1v-94.9h-3.1v94.9Z"/>
  <path class="st5" d="M598.7,372.1c-13.5,0-24.5-11-24.5-24.5v-90.4c0-13.5,11-24.5,24.5-24.5v1c-12.9,0-23.5,10.5-23.5,23.5v90.4c0,12.9,10.5,23.5,23.5,23.5v1Z"/>
  <rect class="st5" x="659.5" y="351.5" width="1" height="30.7" transform="translate(-93.3 314.6) rotate(-25.1)"/>
  <rect class="st5" x="588.8" y="218.2" width="1" height="37.6" transform="translate(-43 177.1) rotate(-16.5)"/>
  <rect class="st5" x="580" y="214.1" width="1" height="48.5" transform="translate(-30.3 382.5) rotate(-35.6)"/>
  <rect class="st5" x="577.7" y="230.1" width="1" height="40.8" transform="translate(30.7 562.5) rotate(-53.1)"/>
  <polygon class="st5" points="594.4 268.8 561.8 255.2 562.2 254.3 594.8 267.8 594.4 268.8"/>
  <rect class="st5" x="577.6" y="252.9" width="1" height="32.7" transform="translate(272.1 828.8) rotate(-86.3)"/>
  <rect class="st5" x="562" y="278.7" width="32.6" height="1"/>
  <rect class="st5" x="562" y="289" width="32.6" height="1"/>
  <rect class="st5" x="562" y="299.3" width="32.6" height="1"/>
  <rect class="st5" x="562" y="309.6" width="32.6" height="1"/>
  <rect class="st5" x="562" y="319.8" width="32.6" height="1"/>
  <rect class="st5" x="562.2" y="329.2" width="32.6" height="1" transform="translate(-13.8 25.5) rotate(-2.5)"/>
  <rect class="st5" x="561.3" y="338.6" width="34.3" height="1" transform="translate(-76.5 195.3) rotate(-18)"/>
  <rect class="st5" x="559.5" y="348.6" width="37.7" height="1" transform="translate(-97.1 336) rotate(-30)"/>
  <rect class="st5" x="555.9" y="359.1" width="45.1" height="1" transform="translate(-88.2 499.2) rotate(-43.7)"/>
  <rect class="st5" x="565.4" y="365.3" width="39.6" height="1" transform="translate(-18.5 700.3) rotate(-61)"/>
  <rect class="st5" x="577.2" y="291.5" width="1" height="44.3" transform="translate(-33.5 555.7) rotate(-50.1)"/>
  <rect class="st5" x="638.4" y="212.3" width="224.7" height="6.5"/>
  <rect class="st5" x="669.5" y="275.9" width="193.6" height="6.5"/>
  <rect class="st5" x="665.9" y="218.7" width="7.1" height="4.7"/>
  <rect class="st5" x="665.9" y="380.5" width="7.1" height="4.7"/>
  <rect class="st5" x="665.9" y="249.2" width="7.1" height="101.5"/>
  <path class="st5" d="M863.6,341.4h-6.2v-52.6h-157.9v-6.8h164v59.5h0ZM858.5,340.4h4.2v-57.5h-162v4.8h157.9v52.6h0Z"/>
  <path class="st5" d="M700.6,349.3h-28v-67.4h28v67.4ZM673.6,348.3h26v-65.4h-26v65.4Z"/>
  <path class="st5" d="M686.6,346c-6.3,0-11.4-5.1-11.4-11.4v-44.9c0-2.4,2-4.4,4.4-4.4h14c2.4,0,4.4,2,4.4,4.4v44.9c0,6.3-5.1,11.4-11.4,11.4ZM679.6,286.2c-1.9,0-3.4,1.5-3.4,3.4v44.9c0,5.7,4.7,10.4,10.4,10.4s10.4-4.7,10.4-10.4v-44.9c0-1.9-1.5-3.4-3.4-3.4h-14Z"/>
  <path class="st5" d="M686.8,297.3c-1.6,0-2.9-1.3-2.9-2.9s1.3-2.9,2.9-2.9,2.9,1.3,2.9,2.9-1.3,2.9-2.9,2.9ZM686.8,292.4c-1.1,0-1.9.9-1.9,1.9s.9,1.9,1.9,1.9,1.9-.9,1.9-1.9-.9-1.9-1.9-1.9Z"/>
  <polygon class="st5" points="840.1 254.2 673.1 254.2 673.1 253.2 839.1 253.2 839.1 218.7 840.1 218.7 840.1 254.2"/>
  <rect class="st5" x="647.6" y="233.1" width="27.3" height="1" transform="translate(153.8 717.6) rotate(-63.1)"/>
  <path class="st5" d="M709.2,84.4h-4v-1h4v1ZM700.2,84.4h-1v-1h1v1ZM694.2,84.4h-8v-1h8v1ZM681.2,84.4h-1v-1h1v1ZM675.2,84.4h-8v-1h8v1ZM662.2,84.4h-1v-1h1v1ZM656.2,84.4h-8v-1h8v1ZM643.2,84.4h-1v-1h1v1ZM637.2,84.4h-8v-1h8v1ZM624.2,84.4h-1v-1h1v1ZM618.2,84.4h-8v-1h8v1ZM605.2,84.4h-1v-1h1v1ZM599.2,84.4h-8v-1h8v1ZM586.2,84.4h-1v-1h1v1ZM580.2,84.4h-8v-1h8v1ZM567.2,84.4h-1v-1h1v1ZM561.2,84.4h-8v-1h8v1ZM548.2,84.4h-1v-1h1v1ZM542.2,84.4h-8v-1h8v1ZM529.2,84.4h-1v-1h1v1ZM523.2,84.4h-4.8v-1h4.8v1Z"/>
  <rect class="st5" x="534.8" y="76" width="1" height="213.6"/>
  <rect class="st5" x="535.3" y="263.9" width="13.6" height="1"/>
  <rect class="st5" x="535.3" y="278.7" width="13.6" height="1"/>
  <path class="st5" d="M902.4,389.8h-4v-1h4v1ZM898.4,389.8h-4v-1h4v1ZM889.4,389.8h-1v-1h1v1ZM883.4,389.8h-4v-1h4v1ZM879.4,389.8h-4v-1h4v1ZM870.4,389.8h-1v-1h1v1ZM864.4,389.8h-4v-1h4v1ZM860.4,389.8h-4v-1h4v1ZM851.4,389.8h-1v-1h1v1ZM845.4,389.8h-4v-1h4v1ZM841.4,389.8h-4v-1h4v1ZM832.4,389.8h-1v-1h1v1ZM826.4,389.8h-4v-1h4v1ZM822.4,389.8h-4v-1h4v1ZM813.4,389.8h-1v-1h1v1ZM807.4,389.8h-4v-1h4v1ZM803.4,389.8h-4v-1h4v1ZM794.4,389.8h-1v-1h1v1ZM788.4,389.8h-4v-1h4v1ZM784.4,389.8h-4v-1h4v1ZM775.4,389.8h-1v-1h1v1ZM769.4,389.8h-4v-1h4v1ZM765.4,389.8h-4v-1h4v1ZM756.4,389.8h-1v-1h1v1ZM750.4,389.8h-4v-1h4v1ZM746.4,389.8h-4v-1h4v1ZM737.4,389.8h-1v-1h1v1ZM731.4,389.8h-4v-1h4v1ZM727.4,389.8h-4v-1h4v1ZM718.4,389.8h-1v-1h1v1ZM712.4,389.8h-4v-1h4v1ZM708.4,389.8h-4v-1h4v1ZM699.4,389.8h-1v-1h1v1ZM693.4,389.8h-4v-1h4v1ZM689.4,389.8h-4v-1h4v1ZM680.4,389.8h-1v-1h1v1ZM674.4,389.8h-4v-1h4v1ZM670.4,389.8h-4v-1h4v1ZM661.4,389.8h-1v-1h1v1ZM655.4,389.8h-4v-1h4v1ZM651.4,389.8h-4v-1h4v1ZM642.4,389.8h-1v-1h1v1ZM636.4,389.8h-4v-1h4v1ZM632.4,389.8h-4v-1h4v1ZM623.4,389.8h-1v-1h1v1ZM617.4,389.8h-4v-1h4v1ZM613.4,389.8h-4v-1h4v1ZM604.4,389.8h-1v-1h1v1ZM598.4,389.8h-4v-1h4v1ZM594.4,389.8h-4v-1h4v1ZM585.4,389.8h-1v-1h1v1ZM579.4,389.8h-4v-1h4v1ZM575.4,389.8h-4v-1h4v1ZM566.4,389.8h-1v-1h1v1ZM560.4,389.8h-4v-1h4v1ZM556.4,389.8h-4v-1h4v1ZM547.4,389.8h-1v-1h1v1ZM541.4,389.8h-4v-1h4v1ZM537.4,389.8h-4v-1h4v1ZM528.4,389.8h-1v-1h1v1ZM522.4,389.8h-4v-1h4v1Z"/>
  <rect class="st7" x="592.9" y="395.8" width="1" height="63.7"/>
  <rect class="st7" x="599.5" y="395.8" width="1" height="63.7"/>
  <rect class="st7" x="606.1" y="395.8" width="1" height="63.7"/>
  <rect class="st7" x="612.7" y="395.8" width="1" height="63.7"/>
  <rect class="st7" x="619.3" y="395.8" width="1" height="63.7"/>
  <rect class="st7" x="626" y="395.8" width="1" height="63.7"/>
  <rect class="st7" x="633.2" y="395.8" width="1" height="63.7"/>
  <rect class="st7" x="639.8" y="395.8" width="1" height="63.7"/>
  <rect class="st7" x="646.4" y="395.8" width="1" height="63.7"/>
  <rect class="st7" x="653" y="395.8" width="1" height="63.7"/>
  <rect class="st7" x="659.7" y="395.8" width="1" height="63.7"/>
  <rect class="st7" x="666.3" y="395.8" width="1" height="63.7"/>
  <rect class="st7" x="672.9" y="395.8" width="1" height="63.7"/>
  <rect class="st7" x="679.5" y="395.8" width="1" height="63.7"/>
  <rect class="st7" x="686.2" y="395.8" width="1" height="63.7"/>
  <rect class="st7" x="692.8" y="395.8" width="1" height="63.7"/>
  <rect class="st7" x="699.4" y="395.8" width="1" height="63.7"/>
  <rect class="st7" x="706" y="395.8" width="1" height="63.7"/>
  <rect class="st7" x="712.6" y="395.8" width="1" height="63.7"/>
  <rect class="st7" x="719.3" y="395.8" width="1" height="63.7"/>
  <rect class="st7" x="725.9" y="395.8" width="1" height="63.7"/>
  <rect class="st7" x="732.5" y="395.8" width="1" height="63.7"/>
  <rect class="st7" x="815.5" y="395.8" width="1" height="63.7"/>
  <rect class="st7" x="822.1" y="395.8" width="1" height="63.7"/>
  <rect class="st7" x="828.8" y="395.8" width="1" height="63.7"/>
  <rect class="st7" x="835.4" y="395.8" width="1" height="63.7"/>
  <rect class="st7" x="790" y="395.8" width="1" height="63.7"/>
  <rect class="st7" x="796.6" y="395.8" width="1" height="63.7"/>
  <rect class="st7" x="803.3" y="395.8" width="1" height="63.7"/>
  <rect class="st7" x="809.9" y="395.8" width="1" height="63.7"/>
  <rect class="st7" x="763.7" y="395.8" width="1" height="63.7"/>
  <rect class="st7" x="770.3" y="395.8" width="1" height="63.7"/>
  <rect class="st7" x="776.9" y="395.8" width="1" height="63.7"/>
  <rect class="st7" x="783.6" y="395.8" width="1" height="63.7"/>
  <rect class="st7" x="738.2" y="395.8" width="1" height="63.7"/>
  <rect class="st7" x="744.8" y="395.8" width="1" height="63.7"/>
  <rect class="st7" x="751.4" y="395.8" width="1" height="63.7"/>
  <rect class="st7" x="758" y="395.8" width="1" height="63.7"/>
  <path class="st5" d="M555.9,481.9h-1v-4h1v4ZM555.9,477.9h-1v-4h1v4ZM555.9,468.9h-1v-1h1v1ZM555.9,462.9h-1v-4h1v4ZM555.9,458.9h-1v-4h1v4ZM555.9,449.9h-1v-1h1v1ZM555.9,443.9h-1v-4h1v4ZM555.9,439.9h-1v-4h1v4ZM555.9,430.9h-1v-1h1v1ZM555.9,424.9h-1v-4h1v4ZM555.9,420.9h-1v-4h1v4ZM555.9,411.9h-1v-1h1v1ZM555.9,405.9h-1v-4h1v4ZM555.9,401.9h-1v-4h1v4ZM555.9,392.9h-1v-1h1v1ZM555.9,386.9h-1v-4h1v4Z"/>
  <path class="st5" d="M870.2,481h-1v-4h1v4ZM870.2,477h-1v-4h1v4ZM870.2,468h-1v-1h1v1ZM870.2,462h-1v-4h1v4ZM870.2,458h-1v-4h1v4ZM870.2,449h-1v-1h1v1ZM870.2,443h-1v-4h1v4ZM870.2,439h-1v-4h1v4ZM870.2,430h-1v-1h1v1ZM870.2,424h-1v-4h1v4ZM870.2,420h-1v-4h1v4ZM870.2,411h-1v-1h1v1ZM870.2,405h-1v-4h1v4ZM870.2,401h-1v-4h1v4ZM870.2,392h-1v-1h1v1ZM870.2,386h-1v-4h1v4Z"/>
  <rect class="st5" x="948.9" y="80.3" width="13.1" height="315.5"/>
  <rect class="st5" x="948.9" y="76" width="326.9" height="15.7"/>
  <rect class="st5" x="1262.6" y="80.3" width="13.1" height="315.5"/>
  <rect class="st5" x="948.9" y="382.9" width="326.9" height="12.9"/>
  <rect class="st5" x="948.9" y="212.3" width="93.8" height="6.5"/>
  <rect class="st5" x="948.9" y="202.1" width="35" height="10.1"/>
  <path class="st5" d="M1305.1,171.6h-3.2v-1h3.2v1ZM1297.9,171.6h-5v-1h5v1ZM1288.9,171.6h-5v-1h5v1ZM1279.9,171.6h-5v-1h5v1Z"/>
  <path class="st5" d="M1305.1,185.2h-3.2v-1h3.2v1ZM1297.9,185.2h-5v-1h5v1ZM1288.9,185.2h-5v-1h5v1ZM1279.9,185.2h-5v-1h5v1Z"/>
  <rect class="st5" x="955.4" y="476.7" width="313.5" height="1"/>
  <path class="st5" d="M1301,451h-1v-1h1v1ZM1301,445h-1v-4h1v4ZM1301,441h-1v-4h1v4ZM1301,432h-1v-1h1v1ZM1301,426h-1v-4h1v4ZM1301,422h-1v-4h1v4ZM1301,413h-1v-1h1v1ZM1301,407h-1v-4h1v4ZM1301,403h-1v-4h1v4ZM1301,394h-1v-1h1v1ZM1301,388h-1v-4h1v4ZM1301,384h-1v-4h1v4ZM1301,375h-1v-1h1v1ZM1301,369h-1v-4h1v4ZM1301,365h-1v-4h1v4ZM1301,356h-1v-1h1v1ZM1301,350h-1v-4h1v4ZM1301,346h-1v-4h1v4ZM1301,337h-1v-1h1v1ZM1301,331h-1v-4h1v4ZM1301,327h-1v-4h1v4ZM1301,318h-1v-1h1v1ZM1301,312h-1v-4h1v4ZM1301,308h-1v-4h1v4ZM1301,299h-1v-1h1v1ZM1301,293h-1v-4h1v4ZM1301,289h-1v-4h1v4ZM1301,280h-1v-1h1v1ZM1301,274h-1v-4h1v4ZM1301,270h-1v-4h1v4ZM1301,261h-1v-1h1v1ZM1301,255h-1v-4h1v4ZM1301,251h-1v-4h1v4ZM1301,242h-1v-1h1v1ZM1301,236h-1v-4h1v4ZM1301,232h-1v-4h1v4ZM1301,223h-1v-1h1v1ZM1301,217h-1v-4h1v4ZM1301,213h-1v-4h1v4ZM1301,204h-1v-1h1v1ZM1301,198h-1v-4h1v4ZM1301,194h-1v-4h1v4ZM1301,185h-1v-1h1v1ZM1301,179h-1v-4h1v4ZM1301,175h-1v-4h1v4ZM1301,166h-1v-1h1v1ZM1301,160h-1v-4h1v4Z"/>
  <g>
    <polygon class="st5" points="1277 431.2 1274 431.2 1274 428.2 1275 428.2 1275 430.2 1277 430.2 1277 431.2"/>
    <path class="st5" d="M1275,424.3h-1v-4.8h1v4.8ZM1275,415.6h-1v-4.8h1v4.8ZM1275,407h-1v-4.8h1v4.8Z"/>
    <polygon class="st5" points="1275 398.3 1274 398.3 1274 396.3 1272 396.3 1272 395.3 1275 395.3 1275 398.3"/>
    <rect class="st5" x="1263.7" y="395.3" width="4.6" height="1"/>
    <polygon class="st5" points="1258 398.3 1257 398.3 1257 395.3 1260 395.3 1260 396.3 1258 396.3 1258 398.3"/>
    <path class="st5" d="M1258,440.8h-1v-4.7h1v4.7ZM1258,432.3h-1v-4.7h1v4.7ZM1258,423.8h-1v-4.7h1v4.7ZM1258,415.3h-1v-4.7h1v4.7ZM1258,406.8h-1v-4.7h1v4.7Z"/>
    <polygon class="st5" points="1260 447.5 1257 447.5 1257 444.5 1258 444.5 1258 446.5 1260 446.5 1260 447.5"/>
    <path class="st5" d="M1294.2,447.5h-4.8v-1h4.8v1ZM1285.7,447.5h-4.8v-1h4.8v1ZM1277.1,447.5h-4.8v-1h4.8v1ZM1268.5,447.5h-4.8v-1h4.8v1Z"/>
    <polygon class="st5" points="1301 447.5 1298 447.5 1298 446.5 1300 446.5 1300 444.5 1301 444.5 1301 447.5"/>
    <rect class="st5" x="1300" y="436.7" width="1" height="4.4"/>
    <polygon class="st5" points="1301 433.2 1300 433.2 1300 431.2 1298 431.2 1298 430.2 1301 430.2 1301 433.2"/>
    <path class="st5" d="M1294.2,431.2h-4.8v-1h4.8v1ZM1285.6,431.2h-4.8v-1h4.8v1Z"/>
  </g>
  <path class="st5" d="M964.6,212.4c-1.6,0-3-1.3-3-3s1.3-3,3-3,3,1.3,3,3-1.3,3-3,3ZM964.6,207.5c-1.1,0-2,.9-2,2s.9,2,2,2,2-.9,2-2-.9-2-2-2Z"/>
  <path class="st5" d="M974.2,212.4c-1.6,0-3-1.3-3-3s1.3-3,3-3,3,1.3,3,3-1.3,3-3,3ZM974.2,207.5c-1.1,0-2,.9-2,2s.9,2,2,2,2-.9,2-2-.9-2-2-2Z"/>
  <rect class="st5" x="982.9" y="91.7" width="1" height="112.5"/>
  <rect class="st5" x="1040.1" y="204.7" width="34.6" height="1" transform="translate(23.1 506) rotate(-27.2)"/>
  <rect class="st5" x="997.7" y="218.7" width="1" height="47.7"/>
  <rect class="st5" x="994.6" y="254.8" width="4.1" height="93.3"/>
  <path class="st5" d="M975.2,347.6h-1v-90.4c0-13.5,11-24.5,24.5-24.5v1c-12.9,0-23.5,10.5-23.5,23.5v90.4Z"/>
  <rect class="st5" x="988.7" y="216.1" width="1" height="41.9" transform="translate(-25.4 310.2) rotate(-17.6)"/>
  <rect class="st5" x="979.7" y="212.4" width="1" height="51.3" transform="translate(44.6 615.1) rotate(-35.6)"/>
  <rect class="st5" x="977.2" y="228.5" width="1" height="43.2" transform="translate(190.7 881.8) rotate(-53.1)"/>
  <polygon class="st5" points="994.8 268.9 960.4 254.6 960.8 253.7 995.2 268 994.8 268.9"/>
  <rect class="st5" x="977.3" y="251.4" width="1" height="35.7" transform="translate(647.7 1228.2) rotate(-86.4)"/>
  <rect class="st5" x="960.6" y="278.7" width="35.1" height="1"/>
  <rect class="st5" x="960.3" y="289" width="35.5" height="1"/>
  <rect class="st5" x="960.3" y="299.3" width="35.5" height="1"/>
  <rect class="st5" x="960.3" y="309.6" width="35.5" height="1"/>
  <rect class="st5" x="960.3" y="319.8" width="35.5" height="1"/>
  <rect class="st5" x="978.1" y="313.5" width="1" height="35.5" transform="translate(637.1 1306.3) rotate(-89.4)"/>
  <rect class="st5" x="1077.9" y="212.3" width="184.8" height="6.5"/>
  <rect class="st5" x="1081.3" y="218.7" width="7.1" height="17.5"/>
  <rect class="st5" x="1081.3" y="262.2" width="7.1" height="10"/>
  <polygon class="st5" points="1070.4 258.4 1069.5 257.9 1081.6 234 1082.5 234.4 1070.4 258.4"/>
  <path class="st5" d="M935.8,289h-1v-4h1v4ZM935.8,285h-1v-4h1v4ZM935.8,276h-1v-1h1v1ZM935.8,270h-1v-4h1v4ZM935.8,266h-1v-4h1v4ZM935.8,257h-1v-1h1v1ZM935.8,251h-1v-4h1v4ZM935.8,247h-1v-4h1v4ZM935.8,238h-1v-1h1v1ZM935.8,232h-1v-4h1v4ZM935.8,228h-1v-4h1v4ZM935.8,219h-1v-1h1v1ZM935.8,213h-1v-4h1v4ZM935.8,209h-1v-4h1v4ZM935.8,200h-1v-1h1v1ZM935.8,194h-1v-4h1v4ZM935.8,190h-1v-4h1v4ZM935.8,181h-1v-1h1v1ZM935.8,175h-1v-4h1v4ZM935.8,171h-1v-4h1v4ZM935.8,162h-1v-1h1v1ZM935.8,156h-1v-4h1v4ZM935.8,152h-1v-4h1v4ZM935.8,143h-1v-1h1v1ZM935.8,137h-1v-4h1v4ZM935.8,133h-1v-4h1v4ZM935.8,124h-1v-1h1v1ZM935.8,118h-1v-4h1v4ZM935.8,114h-1v-4h1v4ZM935.8,105h-1v-1h1v1ZM935.8,99h-1v-4h1v4ZM935.8,95h-1v-4h1v4ZM935.8,86h-1v-1h1v1ZM935.8,80h-1v-4h1v4Z"/>
  <g>
    <rect class="st5" x="935.3" y="263.9" width="2.5" height="1"/>
    <rect class="st5" x="940.4" y="263.9" width="3.3" height="1"/>
    <rect class="st5" x="946.4" y="263.9" width="2.5" height="1"/>
  </g>
  <g>
    <rect class="st5" x="935.3" y="278.7" width="2.5" height="1"/>
    <rect class="st5" x="940.4" y="278.7" width="3.3" height="1"/>
    <rect class="st5" x="946.4" y="278.7" width="2.5" height="1"/>
  </g>
  <path class="st5" d="M955.9,481.9h-1v-4h1v4ZM955.9,477.9h-1v-4h1v4ZM955.9,468.9h-1v-1h1v1ZM955.9,462.9h-1v-4h1v4ZM955.9,458.9h-1v-4h1v4ZM955.9,449.9h-1v-1h1v1ZM955.9,443.9h-1v-4h1v4ZM955.9,439.9h-1v-4h1v4ZM955.9,430.9h-1v-1h1v1ZM955.9,424.9h-1v-4h1v4ZM955.9,420.9h-1v-4h1v4ZM955.9,411.9h-1v-1h1v1ZM955.9,405.9h-1v-4h1v4ZM955.9,401.9h-1v-4h1v4ZM955.9,392.9h-1v-1h1v1ZM955.9,386.9h-1v-4h1v4Z"/>
  <path class="st5" d="M1269.7,481h-1v-4h1v4ZM1269.7,477h-1v-4h1v4ZM1269.7,468h-1v-1h1v1ZM1269.7,462h-1v-4h1v4ZM1269.7,458h-1v-4h1v4ZM1269.7,449h-1v-1h1v1ZM1269.7,443h-1v-4h1v4ZM1269.7,439h-1v-4h1v4ZM1269.7,430h-1v-1h1v1ZM1269.7,424h-1v-4h1v4ZM1269.7,420h-1v-4h1v4ZM1269.7,411h-1v-1h1v1ZM1269.7,405h-1v-4h1v4ZM1269.7,401h-1v-4h1v4ZM1269.7,392h-1v-1h1v1ZM1269.7,386h-1v-4h1v4Z"/>
  <rect class="st5" x="962" y="340.9" width="36.7" height="7.1"/>
  <rect class="st5" x="996.6" y="266" width="46.1" height="6.2"/>
  <rect class="st5" x="1077.9" y="265.1" width="184.8" height="7.1"/>
  <g>
    <rect class="st5" x="962" y="237.9" width="2.5" height="1"/>
    <path class="st5" d="M1256.1,238.9h-5.1v-1h5.1v1ZM1247,238.9h-5.1v-1h5.1v1ZM1237.8,238.9h-5.1v-1h5.1v1ZM1228.7,238.9h-5.1v-1h5.1v1ZM1219.6,238.9h-5.1v-1h5.1v1ZM1210.5,238.9h-5.1v-1h5.1v1ZM1201.4,238.9h-5.1v-1h5.1v1ZM1192.3,238.9h-5.1v-1h5.1v1ZM1183.2,238.9h-5.1v-1h5.1v1ZM1174.1,238.9h-5.1v-1h5.1v1ZM1164.9,238.9h-5.1v-1h5.1v1ZM1155.8,238.9h-5.1v-1h5.1v1ZM1146.7,238.9h-5.1v-1h5.1v1ZM1137.6,238.9h-5.1v-1h5.1v1ZM1128.5,238.9h-5.1v-1h5.1v1ZM1119.4,238.9h-5.1v-1h5.1v1ZM1110.3,238.9h-5.1v-1h5.1v1ZM1101.2,238.9h-5.1v-1h5.1v1ZM1092,238.9h-5.1v-1h5.1v1ZM1082.9,238.9h-5.1v-1h5.1v1ZM1073.8,238.9h-5.1v-1h5.1v1ZM1064.7,238.9h-5.1v-1h5.1v1ZM1055.6,238.9h-5.1v-1h5.1v1ZM1046.5,238.9h-5.1v-1h5.1v1ZM1037.4,238.9h-5.1v-1h5.1v1ZM1028.3,238.9h-5.1v-1h5.1v1ZM1019.2,238.9h-5.1v-1h5.1v1ZM1010,238.9h-5.1v-1h5.1v1ZM1000.9,238.9h-5.1v-1h5.1v1ZM991.8,238.9h-5.1v-1h5.1v1ZM982.7,238.9h-5.1v-1h5.1v1ZM973.6,238.9h-5.1v-1h5.1v1Z"/>
    <rect class="st5" x="1260.1" y="237.9" width="2.5" height="1"/>
  </g>
  <g>
    <rect class="st5" x="924.8" y="279.2" width="1" height="2.5"/>
    <path class="st5" d="M925.8,418.5h-1v-5.1h1v5.1ZM925.8,409.3h-1v-5.1h1v5.1ZM925.8,400.2h-1v-5.1h1v5.1ZM925.8,391.1h-1v-5.1h1v5.1ZM925.8,382h-1v-5.1h1v5.1ZM925.8,372.9h-1v-5.1h1v5.1ZM925.8,363.7h-1v-5.1h1v5.1ZM925.8,354.6h-1v-5.1h1v5.1ZM925.8,345.5h-1v-5.1h1v5.1ZM925.8,336.4h-1v-5.1h1v5.1ZM925.8,327.3h-1v-5.1h1v5.1ZM925.8,318.2h-1v-5.1h1v5.1ZM925.8,309h-1v-5.1h1v5.1ZM925.8,299.9h-1v-5.1h1v5.1ZM925.8,290.8h-1v-5.1h1v5.1Z"/>
    <rect class="st5" x="924.8" y="422.5" width="1" height="2.5"/>
  </g>
  <g>
    <rect class="st5" x="1255" y="424.5" width="2.5" height="1"/>
    <path class="st5" d="M1251,425.5h-5v-1h5v1ZM1242,425.5h-5v-1h5v1ZM1233,425.5h-5v-1h5v1ZM1223.9,425.5h-5v-1h5v1ZM1214.9,425.5h-5v-1h5v1ZM1205.9,425.5h-5v-1h5v1ZM1196.9,425.5h-5v-1h5v1ZM1187.9,425.5h-5v-1h5v1ZM1178.9,425.5h-5v-1h5v1ZM1169.9,425.5h-5v-1h5v1ZM1160.9,425.5h-5v-1h5v1ZM1151.9,425.5h-5v-1h5v1ZM1142.9,425.5h-5v-1h5v1ZM1133.9,425.5h-5v-1h5v1ZM1124.9,425.5h-5v-1h5v1ZM1115.9,425.5h-5v-1h5v1ZM1106.9,425.5h-5v-1h5v1ZM1097.9,425.5h-5v-1h5v1ZM1088.9,425.5h-5v-1h5v1ZM1079.9,425.5h-5v-1h5v1ZM1070.9,425.5h-5v-1h5v1ZM1061.9,425.5h-5v-1h5v1ZM1052.9,425.5h-5v-1h5v1ZM1043.8,425.5h-5v-1h5v1ZM1034.8,425.5h-5v-1h5v1ZM1025.8,425.5h-5v-1h5v1ZM1016.8,425.5h-5v-1h5v1ZM1007.8,425.5h-5v-1h5v1ZM998.8,425.5h-5v-1h5v1ZM989.8,425.5h-5v-1h5v1ZM980.8,425.5h-5v-1h5v1ZM971.8,425.5h-5v-1h5v1ZM962.8,425.5h-5v-1h5v1ZM953.8,425.5h-5v-1h5v1ZM944.8,425.5h-5v-1h5v1ZM935.8,425.5h-5v-1h5v1Z"/>
    <rect class="st5" x="924.3" y="424.5" width="2.5" height="1"/>
  </g>
  <g>
    <polygon class="st5" points="932.6 30.2 931.6 30.2 931.6 27.2 934.6 27.2 934.6 28.2 932.6 28.2 932.6 30.2"/>
    <rect class="st5" x="931.6" y="33.5" width="1" height="4.1"/>
    <polygon class="st5" points="934.6 43.8 931.6 43.8 931.6 40.8 932.6 40.8 932.6 42.8 934.6 42.8 934.6 43.8"/>
    <rect class="st5" x="938.2" y="42.8" width="4.5" height="1"/>
    <polygon class="st5" points="949.4 45.8 948.4 45.8 948.4 43.8 946.4 43.8 946.4 42.8 949.4 42.8 949.4 45.8"/>
    <path class="st5" d="M949.4,72.5h-1v-4.9h1v4.9ZM949.4,63.6h-1v-4.9h1v4.9ZM949.4,54.7h-1v-4.9h1v4.9Z"/>
    <polygon class="st5" points="951.4 79.4 948.4 79.4 948.4 76.4 949.4 76.4 949.4 78.4 951.4 78.4 951.4 79.4"/>
    <rect class="st5" x="954.5" y="78.4" width="3.9" height="1"/>
    <polygon class="st5" points="964.5 79.4 961.5 79.4 961.5 78.4 963.5 78.4 963.5 76.4 964.5 76.4 964.5 79.4"/>
    <path class="st5" d="M964.5,72.7h-1v-4.7h1v4.7ZM964.5,64.2h-1v-4.7h1v4.7ZM964.5,55.7h-1v-4.7h1v4.7ZM964.5,47.2h-1v-4.7h1v4.7ZM964.5,38.7h-1v-4.7h1v4.7Z"/>
    <polygon class="st5" points="964.5 30.2 963.5 30.2 963.5 28.2 961.5 28.2 961.5 27.2 964.5 27.2 964.5 30.2"/>
    <path class="st5" d="M958,28.2h-4.3v-1h4.3v1ZM950.2,28.2h-4.3v-1h4.3v1ZM942.4,28.2h-4.3v-1h4.3v1Z"/>
  </g>
  <g>
    <rect class="st5" x="1297.6" y="193.1" width="1" height="2.5"/>
    <path class="st5" d="M1298.6,189h-1v-5.1h1v5.1ZM1298.6,179.9h-1v-5.1h1v5.1ZM1298.6,170.8h-1v-5.1h1v5.1ZM1298.6,161.6h-1v-5.1h1v5.1ZM1298.6,152.5h-1v-5.1h1v5.1ZM1298.6,143.4h-1v-5.1h1v5.1ZM1298.6,134.3h-1v-5.1h1v5.1ZM1298.6,125.2h-1v-5.1h1v5.1ZM1298.6,116h-1v-5.1h1v5.1ZM1298.6,106.9h-1v-5.1h1v5.1ZM1298.6,97.8h-1v-5.1h1v5.1ZM1298.6,88.7h-1v-5.1h1v5.1ZM1298.6,79.6h-1v-5.1h1v5.1ZM1298.6,70.5h-1v-5.1h1v5.1ZM1298.6,61.3h-1v-5.1h1v5.1Z"/>
    <rect class="st5" x="1297.6" y="49.7" width="1" height="2.5"/>
  </g>
  <g>
    <rect class="st5" x="964" y="52.8" width="2.5" height="1"/>
    <path class="st5" d="M1292.6,53.8h-5v-1h5v1ZM1283.5,53.8h-5v-1h5v1ZM1274.5,53.8h-5v-1h5v1ZM1265.4,53.8h-5v-1h5v1ZM1256.4,53.8h-5v-1h5v1ZM1247.3,53.8h-5v-1h5v1ZM1238.2,53.8h-5v-1h5v1ZM1229.2,53.8h-5v-1h5v1ZM1220.1,53.8h-5v-1h5v1ZM1211.1,53.8h-5v-1h5v1ZM1202,53.8h-5v-1h5v1ZM1192.9,53.8h-5v-1h5v1ZM1183.9,53.8h-5v-1h5v1ZM1174.8,53.8h-5v-1h5v1ZM1165.8,53.8h-5v-1h5v1ZM1156.7,53.8h-5v-1h5v1ZM1147.7,53.8h-5v-1h5v1ZM1138.6,53.8h-5v-1h5v1ZM1129.5,53.8h-5v-1h5v1ZM1120.5,53.8h-5v-1h5v1ZM1111.4,53.8h-5v-1h5v1ZM1102.4,53.8h-5v-1h5v1ZM1093.3,53.8h-5v-1h5v1ZM1084.2,53.8h-5v-1h5v1ZM1075.2,53.8h-5v-1h5v1ZM1066.1,53.8h-5v-1h5v1ZM1057.1,53.8h-5v-1h5v1ZM1048,53.8h-5v-1h5v1ZM1039,53.8h-5v-1h5v1ZM1029.9,53.8h-5v-1h5v1ZM1020.8,53.8h-5v-1h5v1ZM1011.8,53.8h-5v-1h5v1ZM1002.7,53.8h-5v-1h5v1ZM993.7,53.8h-5v-1h5v1ZM984.6,53.8h-5v-1h5v1ZM975.6,53.8h-5v-1h5v1Z"/>
    <rect class="st5" x="1296.6" y="52.8" width="2.5" height="1"/>
  </g>
  <rect class="st5" x="955.9" y="27.7" width="1" height="51.6"/>
  <path class="st5" d="M1269.7,64.4h-1v-4h1v4ZM1269.7,55.4h-1v-1h1v1ZM1269.7,49.4h-1v-8h1v8Z"/>
  <g>
    <path class="st5" d="M456.4,261.6h-49v-32.1h49v32.1ZM408.4,260.6h47v-30.1h-47v30.1Z"/>
    <path class="st5" d="M428.9,212.8h-17v-5h17v5ZM412.9,211.8h15v-3h-15v3Z"/>
    <path class="st5" d="M428.9,228.1h-17v-16.4h17v16.4ZM412.9,227.1h15v-14.4h-15v14.4Z"/>
    <path class="st5" d="M450.1,212.8h-17v-5h17v5ZM434.1,211.8h15v-3h-15v3Z"/>
    <path class="st5" d="M450.1,228.1h-17v-16.4h17v16.4ZM434.1,227.1h15v-14.4h-15v14.4Z"/>
    <path class="st5" d="M450.1,284.2h-17v-5h17v5ZM434.1,283.2h15v-3h-15v3Z"/>
    <path class="st5" d="M450.1,280.2h-17v-16.4h17v16.4ZM434.1,279.2h15v-14.4h-15v14.4Z"/>
    <path class="st5" d="M428.9,284.2h-17v-5h17v5ZM412.9,283.2h15v-3h-15v3Z"/>
    <path class="st5" d="M428.9,280.2h-17v-16.4h17v16.4ZM412.9,279.2h15v-14.4h-15v14.4Z"/>
    <path class="st5" d="M408.4,159.5h-40.7v-23.9h40.7v23.9ZM368.8,158.5h38.7v-21.9h-38.7v21.9Z"/>
    <path class="st5" d="M456.4,157h-12v-55.7h-81.2v28.8h-12v-38.9h105.2v65.8h0ZM445.4,156h10v-63.8h-103.2v36.9h10v-28.8h83.2v55.7h0Z"/>
    <path class="st5" d="M445.4,157h-4.5v-51.5h-78.7v-5.2h83.2v56.7h0ZM441.9,156h2.5v-54.7h-81.2v3.2h78.7v51.5h0Z"/>
    <path class="st5" d="M441.9,157h-7.2v-45.2h-72.4v-7.2h79.7v52.5h-.1ZM435.7,156h5.2v-50.5h-77.7v5.2h72.4v45.2h.1Z"/>
    <path class="st5" d="M435.7,156.5h-18.5v-26.4h-55v-19.3h73.4v45.7h.1ZM418.2,155.5h16.5v-43.7h-71.4v17.3h55v26.4h-.1Z"/>
    <g>
      <path class="st5" d="M284,192.7v-8.7h3.3c.6,0,1.2,0,1.6.3s.7.5.9.8.3.7.3,1.2-.1.9-.4,1.3-.7.5-1.1.6h0c.3.1.6.2.9.4s.5.4.7.7.3.7.3,1.1-.1.9-.3,1.2-.5.6-1,.8-1,.3-1.7.3h-3.5,0ZM285.5,187.6h1.6c.4,0,.8-.1,1-.3s.4-.5.4-.9-.1-.6-.4-.8-.6-.3-1.1-.3h-1.6v2.4h.1ZM285.5,191.4h1.7c.6,0,1-.1,1.3-.3s.4-.5.4-.9-.1-.7-.4-1-.7-.4-1.2-.4h-1.8v2.6h0Z"/>
      <path class="st5" d="M292.6,185.2c-.2,0-.5,0-.6-.2s-.3-.4-.3-.6,0-.4.3-.6.4-.2.6-.2.5,0,.6.2.3.4.3.6,0,.4-.3.6-.4.2-.6.2ZM291.8,192.7v-6.6h1.5v6.6h-1.5Z"/>
      <path class="st5" d="M296.4,192.7v-5.3h-2.1v-1.2h5.7v1.2h-2.1v5.3h-1.5Z"/>
      <path class="st5" d="M302.6,192.8c-.4,0-.8,0-1.1-.2s-.6-.4-.8-.7-.3-.7-.3-1.1.1-.9.4-1.1.6-.5.9-.6.8-.2,1.2-.2c.6,0,1-.1,1.2-.2s.4-.2.4-.4h0c0-.3,0-.6-.3-.8s-.5-.3-.8-.3-.7,0-.9.3-.4.4-.5.6l-1.4-.3c.2-.6.5-1,1-1.3s1.1-.4,1.7-.4.6,0,.9.1.6.2.9.4.5.4.6.7.2.7.2,1.1v4.4h-1.5v-.9h0c-.1.3-.4.5-.7.7s-.7.3-1.2.3h0ZM303,191.7c.5,0,.8-.1,1.1-.4s.4-.6.4-.9v-.8s-.2.1-.4.1-.4,0-.6.1-.4,0-.5,0c-.3,0-.6.1-.9.3s-.3.4-.3.7.1.5.3.6.5.2.8.2h.1Z"/>
      <path class="st5" d="M307,192.7v-1.3h.2c.2,0,.4,0,.5-.2s.2-.4.3-.7.1-.8.1-1.4v-3h5v6.6h-1.5v-5.3h-1.9v2.1c-.1,1.1-.3,2-.7,2.5s-.9.8-1.6.8h-.5.1Z"/>
      <path class="st5" d="M316.3,188.3h1.5c.8,0,1.5.2,1.9.6s.7.9.7,1.6-.2,1.2-.7,1.6-1.1.6-1.9.6h-3v-6.6h1.5v2.1h0ZM316.3,189.5v1.9h1.5c.3,0,.6,0,.8-.3s.3-.4.3-.7-.1-.5-.3-.7-.5-.3-.8-.3h-1.5Z"/>
      <path class="st5" d="M323.3,186.1v2.6h2.7v-2.6h1.5v6.6h-1.5v-2.7h-2.7v2.7h-1.5v-6.6h1.5Z"/>
      <path class="st5" d="M334.3,192.7h-1.5v-2.3h-1.3l-1.4,2.3h-1.7l1.6-2.5c-.4-.2-.7-.4-1-.7s-.3-.7-.3-1.1c0-.6.2-1.2.7-1.6s1.1-.6,2-.6h2.9v6.6h0ZM332.8,189.2v-1.9h-1.2c-.5,0-.8,0-1,.3s-.3.4-.3.7.1.5.3.7.5.2,1,.2h1.2Z"/>
      <path class="st5" d="M290.3,207.2c-.6,0-1.1-.1-1.5-.3s-.8-.5-1.1-.9-.4-.8-.4-1.3h1.5c0,.4.2.7.5.9s.6.3,1,.3.8-.2,1.2-.5.5-.7.5-1.2-.2-.9-.5-1.2-.7-.5-1.2-.5-.5,0-.8.1-.5.2-.6.4l-1.4-.2.5-4.5h5.1v1.3h-3.8l-.2,2.3h0c.2-.2.4-.3.7-.5s.6-.2,1-.2,1,.1,1.4.4.7.6,1,1,.4.9.4,1.5-.1,1.1-.4,1.5-.6.8-1.1,1.1-1,.4-1.6.4h-.2Z"/>
      <path class="st5" d="M298.2,198.3v8.7h-1.6v-7.3h0l-2,1.5v-1.5l1.9-1.4h1.7Z"/>
      <path class="st5" d="M299.8,209.3l.5-3.5h1.6l-1,3.5h-1.1Z"/>
      <path class="st5" d="M306,198.3v8.7h-1.6v-7.3h0l-2,1.5v-1.5l1.9-1.4h1.7Z"/>
      <path class="st5" d="M310.8,207.2c-.4,0-.8,0-1.2-.2s-.8-.4-1.1-.7-.6-.8-.8-1.3-.3-1.2-.3-2,.1-1.8.4-2.6.7-1.2,1.2-1.6,1.1-.6,1.8-.6,1,.1,1.4.3.8.5,1,.9.4.8.5,1.3h-1.5c0-.3-.2-.6-.5-.8s-.6-.3-.9-.3c-.6,0-1.1.3-1.4.8s-.5,1.3-.5,2.2h0c.2-.4.5-.7.9-.9s.8-.3,1.3-.3,1,.1,1.4.4.7.6,1,1,.4.9.4,1.5-.1,1.1-.4,1.5-.6.8-1.1,1.1-1,.4-1.6.4h0ZM310.8,205.9c.3,0,.6,0,.8-.2s.4-.4.6-.6.2-.5.2-.9,0-.6-.2-.8-.3-.5-.6-.6-.5-.2-.8-.2-.6,0-.8.2-.4.4-.6.6-.2.5-.2.8,0,.6.2.8.3.5.6.6.5.2.8.2h0Z"/>
      <path class="st5" d="M318.4,207.1v-6.6h2.3l1.1,2.9c.1.3.2.7.3,1.1s.2.8.2,1.2c0-.4.1-.8.2-1.2s.2-.8.3-1.1l1.1-2.9h2.3v6.6h-1.5v-5.5c-.1.5-.2.9-.4,1.3s-.3.8-.4,1.2l-1.1,2.9h-1.3l-1.1-2.9c-.1-.4-.3-.8-.4-1.2s-.2-.8-.4-1.3v5.4h-1.5.3Z"/>
      <path class="st5" d="M327.6,203.1v-.7l1.8-1.7c.2-.3.4-.5.6-.6.1-.2.2-.4.2-.6s0-.4-.2-.6-.4-.2-.6-.2-.5,0-.6.2c-.2.2-.2.4-.2.6h-.9c0-.3,0-.6.2-.8s.4-.4.6-.6c.3-.1.6-.2.9-.2s.6,0,.9.2c.3.1.5.3.6.5s.2.5.2.8,0,.4-.1.6c0,.2-.2.4-.4.6s-.4.5-.8.8l-.9.9h2.2v.8h-3.5Z"/>
    </g>
  </g>
  <g>
    <path class="st5" d="M66.8,245c0,.6,0,1.2-.3,1.7s-.5.9-.9,1.1-.8.4-1.3.4-.7,0-1-.2-.6-.4-.8-.7-.3-.6-.4-.9h0c0,.4-.3.8-.7,1.1s-.8.4-1.2.4-.8-.1-1.2-.4-.6-.6-.8-1-.3-.9-.3-1.5,0-1.1.3-1.5.5-.8.8-1,.8-.4,1.2-.4.9.1,1.2.4.6.6.7,1.1h0c0-.3.2-.6.4-.9s.5-.5.8-.7.6-.2,1-.2.9.1,1.3.4.7.7.9,1.1.3,1,.3,1.7h0ZM61.6,245c0-.4,0-.7-.4-1s-.5-.4-.9-.4-.7.1-.9.4-.3.6-.3,1,0,.7.3,1,.5.4.9.4.7-.1.9-.4.4-.6.4-1ZM65.6,245c0-.5,0-.9-.4-1.2s-.6-.4-1-.4-.8.2-1,.5-.4.7-.4,1.2,0,.9.4,1.2.6.5,1,.5.7-.1,1-.4.4-.7.4-1.2v-.2Z"/>
    <path class="st5" d="M66.7,240.3h-1.1l-3-3c-.4-.4-.8-.8-1.1-1s-.6-.3-1-.3-.7.1-1,.4-.4.6-.4,1,0,.8.4,1,.6.4,1.1.4v1.5c-.6,0-1-.1-1.4-.4s-.7-.6-1-1-.3-1-.3-1.5,0-1.1.3-1.5.5-.8.9-1,.8-.4,1.3-.4.6,0,.9.2.7.3,1,.7.9.8,1.4,1.3l1.5,1.5h0v-3.8h1.3v6h.2Z"/>
    <path class="st5" d="M66.8,229.7c0,1.1-.4,1.9-1.2,2.5s-1.9.9-3.3.9-2.5-.3-3.3-.9-1.2-1.4-1.2-2.5.4-1.9,1.2-2.5,1.9-.9,3.3-.9,2.5.3,3.3.9,1.2,1.4,1.2,2.5ZM65.5,229.7c0-.6-.3-1-.8-1.3s-1.3-.5-2.3-.5-1.8.2-2.3.5-.8.7-.8,1.3.3,1,.8,1.3,1.3.5,2.3.5,1.8-.2,2.3-.5.8-.7.8-1.3Z"/>
    <path class="st5" d="M66.8,221.8c0,1.1-.4,1.9-1.2,2.5s-1.9.9-3.3.9-2.5-.3-3.3-.9-1.2-1.4-1.2-2.5.4-1.9,1.2-2.5,1.9-.9,3.3-.9,2.5.3,3.3.9,1.2,1.4,1.2,2.5ZM65.5,221.8c0-.6-.3-1-.8-1.3s-1.3-.5-2.3-.5-1.8.2-2.3.5-.8.7-.8,1.3.3,1,.8,1.3,1.3.5,2.3.5,1.8-.2,2.3-.5.8-.7.8-1.3Z"/>
  </g>
  <g>
    <path class="st5" d="M296,473c-.6,0-1.2-.1-1.7-.3s-.9-.5-1.1-.9-.4-.8-.4-1.3,0-.7.2-1,.4-.6.7-.8.6-.3.9-.4h0c-.4-.2-.8-.4-1.1-.7s-.4-.8-.4-1.2.1-.8.4-1.2.6-.6,1-.8.9-.3,1.5-.3,1.1.1,1.5.3.8.5,1,.8.4.8.4,1.2-.1.9-.4,1.2-.6.6-1.1.7h0c.3.1.6.2.9.5s.5.5.7.8.2.6.2,1-.1.9-.4,1.3-.7.7-1.1.9-1,.3-1.7.3h0ZM296,471.8c.5,0,.9-.1,1.2-.4s.4-.6.4-1-.2-.8-.5-1-.7-.4-1.2-.4-.9.1-1.2.4-.5.6-.5,1,.1.7.4,1,.7.4,1.2.4h.2ZM296,467.8c.4,0,.7-.1,1-.4s.4-.5.4-.9-.1-.7-.4-.9-.6-.3-1-.3-.7.1-1,.3-.4.5-.4.9.1.7.4.9.6.4,1,.4Z"/>
    <path class="st5" d="M300.4,471.2v-1.2l3.7-5.9h1.9v5.8h1.1v1.3h-1.1v1.6h-1.5v-1.6h-4.2.1ZM304.6,469.9v-4h0l-2.5,4h2.6-.1Z"/>
    <path class="st5" d="M311.8,473c-1.1,0-1.9-.4-2.5-1.2s-.9-1.9-.9-3.3.3-2.5.9-3.3,1.4-1.2,2.5-1.2,1.9.4,2.5,1.2.9,1.9.9,3.3-.3,2.5-.9,3.3-1.4,1.2-2.5,1.2ZM311.8,471.7c.6,0,1-.3,1.3-.8s.5-1.3.5-2.3-.2-1.8-.5-2.3-.7-.8-1.3-.8-1,.3-1.3.8-.5,1.3-.5,2.3.2,1.8.5,2.3.7.8,1.3.8Z"/>
    <path class="st5" d="M319.7,473c-1.1,0-1.9-.4-2.5-1.2s-.9-1.9-.9-3.3.3-2.5.9-3.3,1.4-1.2,2.5-1.2,1.9.4,2.5,1.2.9,1.9.9,3.3-.3,2.5-.9,3.3-1.4,1.2-2.5,1.2ZM319.7,471.7c.6,0,1-.3,1.3-.8s.5-1.3.5-2.3-.2-1.8-.5-2.3-.7-.8-1.3-.8-1,.3-1.3.8-.5,1.3-.5,2.3.2,1.8.5,2.3.7.8,1.3.8Z"/>
  </g>
  <g>
    <path class="st5" d="M709.8,473c-.6,0-1.2-.1-1.7-.3s-.9-.5-1.1-.9-.4-.8-.4-1.3,0-.7.2-1,.4-.6.7-.8.6-.3.9-.4h0c-.4-.2-.8-.4-1.1-.7s-.4-.8-.4-1.2,0-.8.4-1.2.6-.6,1-.8.9-.3,1.5-.3,1.1.1,1.5.3.8.5,1,.8.4.8.4,1.2,0,.9-.4,1.2-.6.6-1.1.7h0c.3.1.6.2.9.5s.5.5.7.8.2.6.2,1,0,.9-.4,1.3-.7.7-1.1.9-1,.3-1.7.3h0ZM709.8,471.8c.5,0,.9-.1,1.2-.4s.4-.6.4-1-.2-.8-.5-1-.7-.4-1.2-.4-.9.1-1.2.4-.5.6-.5,1,0,.7.4,1,.7.4,1.2.4h.2ZM709.8,467.8c.4,0,.7-.1,1-.4s.4-.5.4-.9,0-.7-.4-.9-.6-.3-1-.3-.7.1-1,.3-.4.5-.4.9,0,.7.4.9.6.4,1,.4Z"/>
    <path class="st5" d="M714.3,471.2v-1.2l3.7-5.9h1.9v5.8h1.1v1.3h-1.1v1.6h-1.5v-1.6h-4.2,0ZM718.5,469.9v-4h0l-2.5,4h2.6,0Z"/>
    <path class="st5" d="M725.6,473c-1.1,0-1.9-.4-2.5-1.2s-.9-1.9-.9-3.3.3-2.5.9-3.3,1.4-1.2,2.5-1.2,1.9.4,2.5,1.2.9,1.9.9,3.3-.3,2.5-.9,3.3-1.4,1.2-2.5,1.2ZM725.6,471.7c.6,0,1-.3,1.3-.8s.5-1.3.5-2.3-.2-1.8-.5-2.3-.7-.8-1.3-.8-1,.3-1.3.8-.5,1.3-.5,2.3.2,1.8.5,2.3.7.8,1.3.8Z"/>
    <path class="st5" d="M733.6,473c-1.1,0-1.9-.4-2.5-1.2s-.9-1.9-.9-3.3.3-2.5.9-3.3,1.4-1.2,2.5-1.2,1.9.4,2.5,1.2.9,1.9.9,3.3-.3,2.5-.9,3.3-1.4,1.2-2.5,1.2ZM733.6,471.7c.6,0,1-.3,1.3-.8s.5-1.3.5-2.3-.2-1.8-.5-2.3-.7-.8-1.3-.8-1,.3-1.3.8-.5,1.3-.5,2.3.2,1.8.5,2.3.7.8,1.3.8Z"/>
  </g>
  <g>
    <path class="st5" d="M1100,473c-.6,0-1.2-.1-1.7-.3s-.9-.5-1.1-.9-.4-.8-.4-1.3,0-.7.2-1,.4-.6.7-.8.6-.3.9-.4h0c-.4-.2-.8-.4-1.1-.7s-.4-.8-.4-1.2,0-.8.4-1.2.6-.6,1-.8.9-.3,1.5-.3,1.1.1,1.5.3.8.5,1,.8.4.8.4,1.2,0,.9-.4,1.2-.6.6-1.1.7h0c.3.1.6.2.9.5s.5.5.7.8.2.6.2,1,0,.9-.4,1.3-.7.7-1.1.9-1,.3-1.7.3h0ZM1100,471.8c.5,0,.9-.1,1.2-.4s.4-.6.4-1-.2-.8-.5-1-.7-.4-1.2-.4-.9.1-1.2.4-.5.6-.5,1,0,.7.4,1,.7.4,1.2.4h.2ZM1100,467.8c.4,0,.7-.1,1-.4s.4-.5.4-.9,0-.7-.4-.9-.6-.3-1-.3-.7.1-1,.3-.4.5-.4.9,0,.7.4.9.6.4,1,.4Z"/>
    <path class="st5" d="M1104.5,471.2v-1.2l3.7-5.9h1.9v5.8h1.1v1.3h-1.1v1.6h-1.5v-1.6h-4.2,0ZM1108.7,469.9v-4h0l-2.5,4h2.6,0Z"/>
    <path class="st5" d="M1115.8,473c-1.1,0-1.9-.4-2.5-1.2s-.9-1.9-.9-3.3.3-2.5.9-3.3,1.4-1.2,2.5-1.2,1.9.4,2.5,1.2.9,1.9.9,3.3-.3,2.5-.9,3.3-1.4,1.2-2.5,1.2ZM1115.8,471.7c.6,0,1-.3,1.3-.8s.5-1.3.5-2.3-.2-1.8-.5-2.3-.7-.8-1.3-.8-1,.3-1.3.8-.5,1.3-.5,2.3.2,1.8.5,2.3.7.8,1.3.8Z"/>
    <path class="st5" d="M1123.8,473c-1.1,0-1.9-.4-2.5-1.2s-.9-1.9-.9-3.3.3-2.5.9-3.3,1.4-1.2,2.5-1.2,1.9.4,2.5,1.2.9,1.9.9,3.3-.3,2.5-.9,3.3-1.4,1.2-2.5,1.2ZM1123.8,471.7c.6,0,1-.3,1.3-.8s.5-1.3.5-2.3-.2-1.8-.5-2.3-.7-.8-1.3-.8-1,.3-1.3.8-.5,1.3-.5,2.3.2,1.8.5,2.3.7.8,1.3.8Z"/>
  </g>
  <g>
    <path class="st5" d="M267.8,32.6v8.7h-1.6v-7.3h0l-2,1.5v-1.5l1.9-1.4h1.7Z"/>
    <path class="st5" d="M273.5,37v1.3h-3.9v-1.3h3.9Z"/>
    <path class="st5" d="M280.8,41.3h-1.5v-4.1h0l-2.8,4.1h-1.3v-6.6h1.5v4.1h0l2.8-4.1h1.3v6.6ZM278,33.9c-.4,0-.7,0-1-.2s-.5-.4-.7-.6-.3-.6-.3-.9h.9c0,.3,0,.5.3.6s.4.2.7.2.5,0,.7-.2.3-.4.3-.6h.9c0,.3,0,.6-.3.9s-.4.5-.7.6-.6.2-1,.2h.2Z"/>
    <path class="st5" d="M291.1,34.7v6.6h-1.5v-5.3h-2.6v5.3h-1.5v-6.6h5.6Z"/>
    <path class="st5" d="M295.6,41.4c-.6,0-1.2,0-1.7-.4s-.8-.7-1.1-1.2-.4-1.1-.4-1.8.1-1.3.4-1.8.6-.9,1.1-1.2,1-.4,1.7-.4,1.2,0,1.7.4.8.7,1.1,1.2.4,1.1.4,1.8-.1,1.3-.4,1.8-.6.9-1.1,1.2-1,.4-1.7.4ZM295.6,40.2c.4,0,.7,0,.9-.3s.4-.4.5-.8.2-.7.2-1.1,0-.8-.2-1.1-.3-.6-.5-.8-.5-.3-.9-.3-.6,0-.9.3-.4.4-.5.8-.2.7-.2,1.1,0,.8.2,1.1.3.6.5.8.5.3.9.3Z"/>
    <path class="st5" d="M300,41.3v-6.6h2.7c.8,0,1.4.2,1.8.5s.7.7.7,1.3-.1.7-.4.9-.6.4-1,.5c.5,0,.9.2,1.2.5s.5.7.5,1.1-.2,1-.6,1.3-1,.5-1.8.5h-3.2,0ZM301.5,37.5h1.3c.3,0,.6,0,.7-.2s.3-.3.3-.6,0-.4-.3-.5-.4-.2-.8-.2h-1.3v1.5h0ZM301.5,40.1h1.7c.3,0,.5,0,.7-.2s.2-.3.2-.6,0-.5-.2-.6-.4-.2-.7-.2h-1.7v1.6Z"/>
    <path class="st5" d="M309.8,41.4c-.7,0-1.2,0-1.7-.4s-.8-.7-1.1-1.2-.4-1.1-.4-1.8.1-1.3.4-1.8.6-.9,1.1-1.2,1-.4,1.6-.4,1,0,1.5.3.8.6,1.1,1.1.4,1.1.4,1.9v.5h-4.6c0,.6.2,1,.5,1.3s.7.5,1.2.5.6,0,.9-.2.4-.4.5-.6l1.4.3c-.2.5-.5,1-1,1.3s-1.1.5-1.8.5h0ZM308.2,37.4h3.1c0-.5-.2-.8-.4-1.1s-.6-.4-1.1-.4-.8,0-1.1.4-.4.7-.5,1.1Z"/>
    <path class="st5" d="M314,43.7v-9h1.5v1.1h0c0-.2.2-.3.3-.5s.3-.3.6-.5.6-.2,1-.2,1,0,1.4.4.7.6,1,1.1.4,1.1.4,1.8-.1,1.3-.4,1.8-.6.9-1,1.2-.9.4-1.4.4-.7,0-.9-.2-.4-.3-.6-.5-.3-.3-.3-.5h0v3.5h-1.6ZM317.1,40.2c.5,0,.9-.2,1.2-.6s.4-.9.4-1.5-.1-1.1-.4-1.5-.6-.6-1.2-.6-.9.2-1.2.6-.4.9-.4,1.5.1,1.2.4,1.5.7.6,1.1.6h.1Z"/>
    <path class="st5" d="M320.7,41.3l2.2-3.4-2-3.2h1.7l.7,1.1c.1.2.2.4.4.7s.2.4.3.6c.1-.2.2-.4.3-.6s.2-.4.4-.7l.7-1.1h1.6l-2.1,3.2,2.2,3.3h-1.7l-.8-1.3c-.1-.2-.2-.4-.4-.6s-.2-.4-.3-.6c0,.2-.2.4-.3.6s-.2.4-.3.6l-.8,1.3h-1.8Z"/>
  </g>
  <g>
    <path class="st5" d="M679.7,41.3v-1.1l3-3c.4-.4.8-.8,1-1.1s.3-.6.3-1,0-.7-.4-1-.6-.4-1-.4-.8,0-1,.4-.4.6-.4,1.1h-1.5c0-.6,0-1,.4-1.4s.6-.7,1-1,1-.3,1.5-.3,1.1,0,1.5.3.8.5,1,.9.4.8.4,1.3,0,.6-.2.9-.3.7-.7,1-.8.9-1.3,1.4l-1.5,1.5h3.8v1.3h-6v.2Z"/>
    <path class="st5" d="M691.1,37v1.3h-3.9v-1.3h3.9Z"/>
    <path class="st5" d="M698.5,41.3h-1.5v-4.1h0l-2.8,4.1h-1.3v-6.6h1.5v4.1h0l2.8-4.1h1.3v6.6ZM695.7,33.9c-.4,0-.7,0-1-.2s-.5-.4-.7-.6-.3-.6-.3-.9h.9c0,.3,0,.5.3.6s.4.2.7.2.5,0,.7-.2.3-.4.3-.6h.9c0,.3,0,.6-.3.9s-.4.5-.7.6-.6.2-1,.2h.2Z"/>
    <path class="st5" d="M708.8,34.7v6.6h-1.5v-5.3h-2.6v5.3h-1.5v-6.6h5.6Z"/>
    <path class="st5" d="M713.3,41.4c-.6,0-1.2,0-1.7-.4s-.8-.7-1.1-1.2-.4-1.1-.4-1.8,0-1.3.4-1.8.6-.9,1.1-1.2,1-.4,1.7-.4,1.2,0,1.7.4.8.7,1.1,1.2.4,1.1.4,1.8,0,1.3-.4,1.8-.6.9-1.1,1.2-1,.4-1.7.4ZM713.3,40.2c.4,0,.7,0,.9-.3s.4-.4.5-.8.2-.7.2-1.1,0-.8-.2-1.1-.3-.6-.5-.8-.5-.3-.9-.3-.6,0-.9.3-.4.4-.5.8-.2.7-.2,1.1,0,.8.2,1.1.3.6.5.8.5.3.9.3Z"/>
    <path class="st5" d="M717.7,41.3v-6.6h2.7c.8,0,1.4.2,1.8.5s.7.7.7,1.3,0,.7-.4.9-.6.4-1,.5c.5,0,.9.2,1.2.5s.5.7.5,1.1-.2,1-.6,1.3-1,.5-1.8.5h-3.2,0ZM719.2,37.5h1.3c.3,0,.6,0,.7-.2s.3-.3.3-.6,0-.4-.3-.5-.4-.2-.8-.2h-1.3v1.5h0ZM719.2,40.1h1.7c.3,0,.5,0,.7-.2s.2-.3.2-.6,0-.5-.2-.6-.4-.2-.7-.2h-1.7v1.6Z"/>
    <path class="st5" d="M727.5,41.4c-.7,0-1.2,0-1.7-.4s-.8-.7-1.1-1.2-.4-1.1-.4-1.8,0-1.3.4-1.8.6-.9,1.1-1.2,1-.4,1.6-.4,1,0,1.5.3.8.6,1.1,1.1.4,1.1.4,1.9v.5h-4.6c0,.6.2,1,.5,1.3s.7.5,1.2.5.6,0,.9-.2.4-.4.5-.6l1.4.3c-.2.5-.5,1-1,1.3s-1.1.5-1.8.5h0ZM725.8,37.4h3.1c0-.5-.2-.8-.4-1.1s-.6-.4-1.1-.4-.8,0-1.1.4-.4.7-.5,1.1Z"/>
    <path class="st5" d="M731.7,43.7v-9h1.5v1.1h0c0-.2.2-.3.3-.5s.3-.3.6-.5.6-.2,1-.2,1,0,1.4.4.7.6,1,1.1.4,1.1.4,1.8,0,1.3-.4,1.8-.6.9-1,1.2-.9.4-1.4.4-.7,0-.9-.2-.4-.3-.6-.5-.3-.3-.3-.5h0v3.5h-1.6ZM734.7,40.2c.5,0,.9-.2,1.2-.6s.4-.9.4-1.5,0-1.1-.4-1.5-.6-.6-1.2-.6-.9.2-1.2.6-.4.9-.4,1.5,0,1.2.4,1.5.7.6,1.1.6h.1Z"/>
    <path class="st5" d="M738.4,41.3l2.2-3.4-2-3.2h1.7l.7,1.1c0,.2.2.4.4.7s.2.4.3.6c0-.2.2-.4.3-.6s.2-.4.4-.7l.7-1.1h1.6l-2.1,3.2,2.2,3.3h-1.7l-.8-1.3c0-.2-.2-.4-.4-.6s-.2-.4-.3-.6c0,.2-.2.4-.3.6s-.2.4-.3.6l-.8,1.3h-1.8Z"/>
  </g>
  <g>
    <path class="st5" d="M1093.7,41.4c-.6,0-1.2,0-1.6-.3s-.8-.5-1.1-.9-.4-.8-.4-1.3h1.6c0,.4.2.6.5.9s.7.3,1.1.3.9,0,1.2-.4.5-.6.5-.9-.2-.7-.5-1-.7-.4-1.3-.4h-.8v-1.2h.8c.5,0,.8,0,1.1-.4s.4-.5.4-.9,0-.7-.4-.9-.6-.3-1-.3-.8,0-1.1.3-.5.5-.5.9h-1.5c0-.5,0-.9.4-1.3s.6-.7,1.1-.9,1-.3,1.5-.3,1.1,0,1.5.3.8.5,1,.9.4.8.4,1.2,0,.9-.4,1.2-.7.6-1.1.7h0c.6.2,1.1.4,1.4.8s.5.8.5,1.4,0,.9-.4,1.3-.7.7-1.1.9-1,.3-1.7.3h0Z"/>
    <path class="st5" d="M1102.3,37v1.3h-3.9v-1.3h3.9Z"/>
    <path class="st5" d="M1109.7,41.3h-1.5v-4.1h0l-2.8,4.1h-1.3v-6.6h1.5v4.1h0l2.8-4.1h1.3v6.6ZM1106.8,33.9c-.4,0-.7,0-1-.2s-.5-.4-.7-.6-.3-.6-.3-.9h.9c0,.3,0,.5.3.6s.4.2.7.2.5,0,.7-.2.3-.4.3-.6h.9c0,.3,0,.6-.3.9s-.4.5-.7.6-.6.2-1,.2h.2Z"/>
    <path class="st5" d="M1120,34.7v6.6h-1.5v-5.3h-2.6v5.3h-1.5v-6.6h5.6Z"/>
    <path class="st5" d="M1124.4,41.4c-.6,0-1.2,0-1.7-.4s-.8-.7-1.1-1.2-.4-1.1-.4-1.8,0-1.3.4-1.8.6-.9,1.1-1.2,1-.4,1.7-.4,1.2,0,1.7.4.8.7,1.1,1.2.4,1.1.4,1.8,0,1.3-.4,1.8-.6.9-1.1,1.2-1,.4-1.7.4ZM1124.4,40.2c.4,0,.7,0,.9-.3s.4-.4.5-.8.2-.7.2-1.1,0-.8-.2-1.1-.3-.6-.5-.8-.5-.3-.9-.3-.6,0-.9.3-.4.4-.5.8-.2.7-.2,1.1,0,.8.2,1.1.3.6.5.8.5.3.9.3Z"/>
    <path class="st5" d="M1128.9,41.3v-6.6h2.7c.8,0,1.4.2,1.8.5s.7.7.7,1.3,0,.7-.4.9-.6.4-1,.5c.5,0,.9.2,1.2.5s.5.7.5,1.1-.2,1-.6,1.3-1,.5-1.8.5h-3.2.1ZM1130.3,37.5h1.3c.3,0,.6,0,.7-.2s.3-.3.3-.6,0-.4-.3-.5-.4-.2-.8-.2h-1.3v1.5h.1ZM1130.3,40.1h1.7c.3,0,.5,0,.7-.2s.2-.3.2-.6,0-.5-.2-.6-.4-.2-.7-.2h-1.7v1.6Z"/>
    <path class="st5" d="M1138.7,41.4c-.7,0-1.2,0-1.7-.4s-.8-.7-1.1-1.2-.4-1.1-.4-1.8,0-1.3.4-1.8.6-.9,1.1-1.2,1-.4,1.6-.4,1,0,1.5.3.8.6,1.1,1.1.4,1.1.4,1.9v.5h-4.6c0,.6.2,1,.5,1.3s.7.5,1.2.5.6,0,.9-.2.4-.4.5-.6l1.4.3c-.2.5-.5,1-1,1.3s-1.1.5-1.8.5h0ZM1137,37.4h3.1c0-.5-.2-.8-.4-1.1s-.6-.4-1.1-.4-.8,0-1.1.4-.4.7-.5,1.1Z"/>
    <path class="st5" d="M1142.9,43.7v-9h1.5v1.1h0c0-.2.2-.3.3-.5s.3-.3.6-.5.6-.2,1-.2,1,0,1.4.4.7.6,1,1.1.4,1.1.4,1.8,0,1.3-.4,1.8-.6.9-1,1.2-.9.4-1.4.4-.7,0-.9-.2-.4-.3-.6-.5-.3-.3-.3-.5h0v3.5h-1.6ZM1145.9,40.2c.5,0,.9-.2,1.2-.6s.4-.9.4-1.5,0-1.1-.4-1.5-.6-.6-1.2-.6-.9.2-1.2.6-.4.9-.4,1.5,0,1.2.4,1.5.7.6,1.1.6h0Z"/>
    <path class="st5" d="M1149.6,41.3l2.2-3.4-2-3.2h1.7l.7,1.1c0,.2.2.4.4.7s.2.4.3.6c0-.2.2-.4.3-.6s.2-.4.4-.7l.7-1.1h1.6l-2.1,3.2,2.2,3.3h-1.7l-.8-1.3c0-.2-.2-.4-.4-.6s-.2-.4-.3-.6c0,.2-.2.4-.3.6s-.2.4-.3.6l-.8,1.3h-1.8Z"/>
  </g>
  <g>
    <path class="st2" d="M55.7,422v17.4h-2.7v-15.2h-8.6v15.2h-2.7v-17.4h14Z"/>
    <path class="st2" d="M57.8,439.5v-2.2h.5c.5,0,.9-.1,1.1-.4.3-.3.5-.8.6-1.5s.2-1.7.3-3.1l.2-5.9h9.3v13.1h-2.6v-10.9h-4.3l-.2,4.4c0,2.2-.5,3.9-1.1,4.9s-1.7,1.6-3.1,1.6h-.9.2Z"/>
    <path class="st2" d="M78.9,439.8c-1.2,0-2.3-.3-3.2-.8-.9-.6-1.6-1.3-2.1-2.4-.5-1-.8-2.2-.8-3.5s.3-2.5.8-3.6c.5-1,1.2-1.8,2.1-2.4s2-.8,3.2-.8,2.3.3,3.2.8c.9.6,1.6,1.4,2.1,2.4s.8,2.2.8,3.6-.3,2.5-.8,3.5-1.2,1.8-2.1,2.4-2,.8-3.2.8ZM78.9,437.6c.8,0,1.5-.2,2-.6s.9-1,1.2-1.7c.3-.7.4-1.5.4-2.3s0-1.6-.4-2.3c-.3-.7-.6-1.3-1.2-1.7-.5-.4-1.2-.6-2-.6s-1.4.2-2,.6c-.5.4-.9,1-1.2,1.7-.3.7-.4,1.5-.4,2.3s0,1.6.4,2.3c.3.7.6,1.2,1.2,1.7.5.4,1.2.6,2,.6Z"/>
    <path class="st2" d="M87.9,426.4h2.6v10.9h4.4v-10.9h2.5v10.9h4.4v-10.9h2.6v13.1h-16.6v-13.1h0ZM103.6,443.2v-3.7h-.9v-2.2h3.5v6h-2.6Z"/>
    <path class="st2" d="M112,439.8c-.8,0-1.6-.2-2.3-.5s-1.2-.8-1.6-1.4-.6-1.3-.6-2.2,0-1.4.4-1.8c.3-.5.7-.9,1.2-1.1.5-.3,1-.5,1.6-.6s1.2-.2,1.8-.3c1.2-.1,2-.2,2.5-.3s.8-.4.8-.8h0c0-.8-.2-1.4-.6-1.8s-1-.6-1.9-.6-1.5.2-2,.6-.8.8-1,1.2l-2.4-.6c.3-.8.7-1.4,1.3-1.9.6-.5,1.2-.8,1.9-1s1.5-.3,2.2-.3,1.1,0,1.7.2,1.2.3,1.7.7c.5.3.9.8,1.3,1.4.3.6.5,1.4.5,2.3v8.7h-2.5v-1.8h0c-.3.5-.7,1-1.3,1.4-.6.4-1.5.7-2.5.7v-.2ZM112.6,437.7c.7,0,1.3-.1,1.8-.4s.9-.6,1.2-1.1c.3-.4.4-.9.4-1.4v-1.7c0,.1-.4.2-.8.3s-.8.2-1.3.2-.8.1-1.1.1c-.7.1-1.3.3-1.9.6-.5.3-.8.8-.8,1.4s.2,1.1.7,1.4,1.1.5,1.8.5h0Z"/>
    <path class="st2" d="M136,431v2.2h-7.8v-2.2h7.8Z"/>
    <path class="st2" d="M60.5,450.8v17.4h-2.6v-15h0l-4.1,3v-2.7l3.8-2.8h3.1-.1Z"/>
    <path class="st2" d="M64.6,468.3l7.6-15h0c0-.1-8.8-.1-8.8-.1v-2.3h11.6v2.4l-7.6,15.1h-2.8Z"/>
    <path class="st2" d="M83.5,468.5c-2,0-3.6-.8-4.7-2.3-1.1-1.6-1.7-3.8-1.7-6.6s.6-5,1.7-6.6,2.7-2.4,4.7-2.4,3.6.8,4.7,2.4,1.7,3.8,1.7,6.6-.6,5-1.7,6.6-2.7,2.3-4.7,2.3ZM83.5,466.2c1.2,0,2.1-.6,2.8-1.7s1-2.8,1-4.9-.3-3.8-1-4.9c-.7-1.2-1.6-1.8-2.8-1.8s-2.1.6-2.8,1.8c-.7,1.2-1,2.8-1,4.9s.3,3.8,1,4.9,1.6,1.7,2.8,1.7Z"/>
    <path class="st2" d="M99.3,468.3v-13.1h3.9l2.6,6.5c.3.7.5,1.4.7,2.2.2.7.3,1.4.5,2.1,0-.6.3-1.3.5-2.1.2-.7.4-1.5.7-2.2l2.6-6.5h3.9v13.1h-2.6v-11.1c-.2.9-.5,1.7-.7,2.4-.2.8-.5,1.5-.9,2.4l-2.5,6.3h-2.2l-2.6-6.3c-.3-.8-.6-1.6-.8-2.3-.2-.7-.5-1.5-.7-2.3v10.9h-2.5,0Z"/>
    <path class="st2" d="M117.4,460.3v-1.1l3.5-3.6c.5-.6.9-1,1.2-1.4.3-.4.4-.8.4-1.2s-.2-.9-.5-1.2c-.3-.3-.8-.4-1.3-.4s-1,.2-1.3.5-.5.8-.5,1.3h-1.5c0-.6,0-1.2.4-1.6.3-.5.7-.8,1.2-1.1.5-.3,1.1-.4,1.7-.4s1.2.1,1.7.4.9.6,1.2,1c.3.4.4.9.4,1.5s0,.7-.2,1.1-.4.8-.7,1.2c-.3.4-.8,1-1.5,1.6l-2,2.1h4.6v1.3h-6.8Z"/>
  </g>
  <path class="st5" d="M47.5,88.8v-8.7h3.3c.6,0,1.2,0,1.6.3s.7.5.9.8.3.7.3,1.2,0,.9-.4,1.3-.7.5-1.1.6h0c.3,0,.6.2.9.4s.5.4.7.7.3.7.3,1.1,0,.9-.3,1.2-.5.6-1,.8-1,.3-1.7.3c0,0-3.5,0-3.5,0ZM49.1,83.8h1.6c.4,0,.8,0,1-.3s.4-.5.4-.9,0-.6-.4-.8-.6-.3-1.1-.3h-1.6v2.4h0ZM49.1,87.5h1.7c.6,0,1,0,1.3-.3s.4-.5.4-.9,0-.7-.4-1-.7-.4-1.2-.4h-1.8v2.6Z"/>
  <g>
    <path class="st5" d="M675.9,149.1c-.8,0-1.4-.2-2.1-.5s-1.1-.9-1.4-1.5-.5-1.5-.5-2.4.2-1.7.5-2.4.8-1.2,1.4-1.5,1.3-.5,2-.5,1.2.1,1.7.4,1,.6,1.3,1,.6,1,.7,1.6h-1.6c0-.5-.3-.9-.7-1.2s-.8-.4-1.4-.4-1.3.3-1.8.8-.7,1.3-.7,2.3.2,1.8.7,2.3,1,.8,1.8.8,1-.1,1.4-.4.6-.7.7-1.2h1.6c0,.6-.3,1.1-.6,1.5s-.7.8-1.3,1.1-1.1.4-1.8.4v-.2Z"/>
    <path class="st5" d="M686.6,142.4v6.6h-1.5v-5.3h-2.6v5.3h-1.5v-6.6h5.6Z"/>
    <path class="st5" d="M690.1,149.1c-.4,0-.8,0-1.1-.2s-.6-.4-.8-.7-.3-.7-.3-1.1,0-.9.4-1.1.6-.5.9-.6.8-.2,1.2-.2c.6,0,1-.1,1.2-.2s.4-.2.4-.4h0c0-.3,0-.6-.3-.8s-.5-.3-.8-.3-.7,0-.9.3-.4.4-.5.6l-1.4-.3c.2-.6.5-1,1-1.3s1.1-.4,1.7-.4.6,0,.9.1.6.2.9.4.5.4.6.7.2.7.2,1.1v4.4h-1.5v-.9h0c0,.3-.4.5-.7.7s-.7.3-1.2.3h0ZM690.5,148c.5,0,.8-.1,1.1-.4s.4-.6.4-.9v-.8s-.2.1-.4.1-.4,0-.6.1-.4,0-.5,0c-.3,0-.6.1-.9.3s-.3.4-.3.7,0,.5.3.6.5.2.8.2h.1Z"/>
    <path class="st5" d="M694.4,149v-1.3h.2c.2,0,.4,0,.5-.2s.2-.4.3-.7,0-.8,0-1.4v-3h5v6.6h-1.5v-5.3h-1.9v2.1c0,1.1-.3,2-.7,2.5s-.9.8-1.6.8h-.5.1Z"/>
    <path class="st5" d="M703.8,144.6h1.5c.8,0,1.5.2,1.9.6s.7.9.7,1.6-.2,1.2-.7,1.6-1.1.6-1.9.6h-3v-6.6h1.5v2.1h0ZM703.8,145.8v1.9h1.5c.3,0,.6,0,.8-.3s.3-.4.3-.7,0-.5-.3-.7-.5-.3-.8-.3h-1.5Z"/>
    <path class="st5" d="M710.7,142.4v2.6h2.7v-2.6h1.5v6.6h-1.5v-2.7h-2.7v2.7h-1.5v-6.6h1.5Z"/>
    <path class="st5" d="M721.8,149h-1.5v-2.3h-1.3l-1.4,2.3h-1.7l1.6-2.5c-.4-.2-.7-.4-1-.7s-.3-.7-.3-1.1c0-.6.2-1.2.7-1.6s1.1-.6,2-.6h2.9v6.6h0ZM720.3,145.6v-1.9h-1.2c-.5,0-.8,0-1,.3s-.3.4-.3.7,0,.5.3.7.5.2,1,.2h1.2Z"/>
    <path class="st5" d="M680.3,163.5c-.6,0-1.2-.1-1.6-.3s-.8-.5-1.1-.9-.4-.8-.4-1.3h1.6c0,.4.2.6.5.9s.7.3,1.1.3.9-.1,1.2-.4.5-.6.5-.9-.2-.7-.5-1-.7-.4-1.3-.4h-.8v-1.2h.8c.5,0,.8-.1,1.1-.4s.4-.5.4-.9,0-.7-.4-.9-.6-.3-1-.3-.8.1-1.1.3-.5.5-.5.9h-1.5c0-.5,0-.9.4-1.3s.6-.7,1.1-.9,1-.3,1.5-.3,1.1.1,1.5.3.8.5,1,.9.4.8.4,1.2,0,.9-.4,1.2-.7.6-1.1.7h0c.6.2,1.1.4,1.4.8s.5.8.5,1.4,0,.9-.4,1.3-.7.7-1.1.9-1,.3-1.7.3h-.1Z"/>
    <path class="st5" d="M688.4,154.7v8.7h-1.6v-7.3h0l-2,1.5v-1.5l1.9-1.4h1.7,0Z"/>
    <path class="st5" d="M689.9,165.6l.5-3.5h1.6l-1,3.5h-1.1Z"/>
    <path class="st5" d="M696.6,163.5c-.6,0-1.2-.1-1.7-.3s-.9-.5-1.1-.9-.4-.8-.4-1.3,0-.7.2-1,.4-.6.7-.8.6-.3.9-.4h0c-.4-.2-.8-.4-1.1-.7s-.4-.8-.4-1.2,0-.8.4-1.2.6-.6,1-.8.9-.3,1.5-.3,1.1.1,1.5.3.8.5,1,.8.4.8.4,1.2,0,.9-.4,1.2-.6.6-1.1.7h0c.3.1.6.2.9.5s.5.5.7.8.2.6.2,1,0,.9-.4,1.3-.7.7-1.1.9-1,.3-1.7.3h0ZM696.6,162.3c.5,0,.9-.1,1.2-.4s.4-.6.4-1-.2-.8-.5-1-.7-.4-1.2-.4-.9.1-1.2.4-.5.6-.5,1,0,.7.4,1,.7.4,1.2.4h.2ZM696.6,158.3c.4,0,.7-.1,1-.4s.4-.5.4-.9,0-.7-.4-.9-.6-.3-1-.3-.7.1-1,.3-.4.5-.4.9,0,.7.4.9.6.4,1,.4Z"/>
    <path class="st5" d="M704.2,163.4v-6.6h2.3l1.1,2.9c0,.3.2.7.3,1.1s.2.8.2,1.2c0-.4,0-.8.2-1.2s.2-.8.3-1.1l1.1-2.9h2.3v6.6h-1.5v-5.5c0,.5-.2.9-.4,1.3s-.3.8-.4,1.2l-1.1,2.9h-1.3l-1.1-2.9c0-.4-.3-.8-.4-1.2s-.2-.8-.4-1.3v5.4h-1.5.3Z"/>
    <path class="st5" d="M713.5,159.4v-.7l1.8-1.7c.2-.3.4-.5.6-.6s.2-.4.2-.6,0-.4-.2-.6c-.2-.1-.4-.2-.6-.2s-.5,0-.6.2-.2.4-.2.6h-.9c0-.3,0-.6.2-.8,0-.2.4-.4.6-.6.3-.1.6-.2.9-.2s.6,0,.9.2c.3.1.5.3.6.5s.2.5.2.8,0,.4,0,.6c0,.2-.2.4-.4.6-.2.2-.4.5-.8.8l-.9.9h2.2v.8h-3.5Z"/>
  </g>
  <g>
    <path class="st5" d="M737.1,228v1.3h-4v7.4h-1.6v-8.7h5.6Z"/>
    <path class="st5" d="M739.4,236.9c-.4,0-.8,0-1.1-.2s-.6-.4-.8-.7-.3-.7-.3-1.1,0-.9.4-1.1.6-.5.9-.6.8-.2,1.2-.2c.6,0,1-.1,1.2-.2s.4-.2.4-.4h0c0-.3,0-.6-.3-.8s-.5-.3-.8-.3-.7,0-.9.3-.4.4-.5.6l-1.4-.3c.2-.6.5-1,1-1.3s1.1-.4,1.7-.4.6,0,.9.1.6.2.9.4.5.4.6.7.2.7.2,1.1v4.4h-1.5v-.9h0c0,.3-.4.5-.7.7s-.7.3-1.2.3h0ZM739.8,235.7c.5,0,.8-.1,1.1-.4s.4-.6.4-.9v-.8s-.2.1-.4.1-.4,0-.6.1-.4,0-.5,0c-.3,0-.6.1-.9.3s-.3.4-.3.7,0,.5.3.6.5.2.8.2h.1Z"/>
    <path class="st5" d="M744.4,239.2v-9h1.5v1.1h0c0-.2.2-.3.3-.5s.3-.3.6-.5.6-.2,1-.2,1,.1,1.4.4.7.6,1,1.1.4,1.1.4,1.8,0,1.3-.4,1.8-.6.9-1,1.2-.9.4-1.4.4-.7,0-.9-.2-.4-.3-.6-.5-.3-.3-.3-.5h0v3.5h-1.6ZM747.5,235.6c.5,0,.9-.2,1.2-.6s.4-.9.4-1.5,0-1.1-.4-1.5-.6-.6-1.2-.6-.9.2-1.2.6-.4.9-.4,1.5,0,1.2.4,1.5.7.6,1.1.6h.1Z"/>
    <path class="st5" d="M751.3,238.6v-3.2h.5c.3-.2.5-.6.6-1.1s.2-1.1.3-1.9l.2-2.3h4.7v5.3h1v3.2h-1.5v-1.9h-4.3v1.9h-1.5ZM753.4,235.5h2.7v-4.1h-2v1.1c0,.7-.2,1.3-.3,1.8s-.2.9-.5,1.2h0Z"/>
    <path class="st5" d="M762.3,236.9c-.7,0-1.2-.1-1.7-.4s-.8-.7-1.1-1.2-.4-1.1-.4-1.8,0-1.3.4-1.8.6-.9,1.1-1.2,1-.4,1.6-.4,1,.1,1.5.3.8.6,1.1,1.1.4,1.1.4,1.9v.5h-4.6c0,.6.2,1,.5,1.3s.7.5,1.2.5.6,0,.9-.2.4-.4.5-.6l1.4.3c-.2.5-.5,1-1,1.3s-1.1.5-1.8.5h0ZM760.7,232.8h3.1c0-.5-.2-.8-.4-1.1s-.6-.4-1.1-.4-.8.1-1.1.4-.4.7-.5,1.1Z"/>
    <path class="st5" d="M766.5,239.2v-9h1.5v1.1h0c0-.2.2-.3.3-.5s.3-.3.6-.5.6-.2,1-.2,1,.1,1.4.4.7.6,1,1.1.4,1.1.4,1.8,0,1.3-.4,1.8-.6.9-1,1.2-.9.4-1.4.4-.7,0-.9-.2-.4-.3-.6-.5-.3-.3-.3-.5h0v3.5h-1.6ZM769.6,235.6c.5,0,.9-.2,1.2-.6s.4-.9.4-1.5,0-1.1-.4-1.5-.6-.6-1.2-.6-.9.2-1.2.6-.4.9-.4,1.5,0,1.2.4,1.5.7.6,1.1.6h.1Z"/>
    <path class="st5" d="M776.9,236.9c-.6,0-1.2-.1-1.7-.4s-.8-.7-1.1-1.2-.4-1.1-.4-1.8,0-1.3.4-1.8.6-.9,1.1-1.2,1-.4,1.7-.4,1.2.1,1.7.4.8.7,1.1,1.2.4,1.1.4,1.8,0,1.3-.4,1.8-.6.9-1.1,1.2-1,.4-1.7.4ZM776.9,235.6c.4,0,.7,0,.9-.3s.4-.4.5-.8.2-.7.2-1.1,0-.8-.2-1.1-.3-.6-.5-.8-.5-.3-.9-.3-.6,0-.9.3-.4.4-.5.8-.2.7-.2,1.1,0,.8.2,1.1.3.6.5.8.5.3.9.3Z"/>
    <path class="st5" d="M784.2,236.9c-.6,0-1.1-.1-1.6-.4s-.8-.7-1.1-1.2-.4-1.1-.4-1.8v-.2c0-.9,0-1.7.3-2.4s.6-1.2,1.1-1.5,1.3-.6,2.2-.6.7,0,.8-.2.2-.3.2-.5h1.2c0,.6-.2,1.1-.5,1.3s-.9.4-1.6.5c-.5,0-1,.1-1.3.3s-.6.4-.8.7-.3.8-.4,1.5h0c0-.3.3-.6.5-.8s.5-.5.9-.6.7-.2,1.1-.2.9.1,1.3.4.7.6.9,1.1.3,1,.3,1.5,0,1.2-.4,1.7-.6.9-1.1,1.2-1,.4-1.6.4v-.2ZM784.2,235.7c.5,0,.9-.2,1.2-.5s.4-.8.4-1.5,0-1.1-.4-1.4-.7-.5-1.1-.5-.9.2-1.2.5-.5.8-.5,1.4,0,1.1.4,1.4.7.5,1.2.5h0Z"/>
    <path class="st5" d="M790.1,230.2v2.6h2.7v-2.6h1.5v6.6h-1.5v-2.7h-2.7v2.7h-1.5v-6.6h1.5Z"/>
    <path class="st5" d="M797.7,236.9c-.4,0-.8,0-1.1-.2s-.6-.4-.8-.7-.3-.7-.3-1.1,0-.9.4-1.1.6-.5.9-.6.8-.2,1.2-.2c.6,0,1-.1,1.2-.2s.4-.2.4-.4h0c0-.3,0-.6-.3-.8s-.5-.3-.8-.3-.7,0-.9.3-.4.4-.5.6l-1.4-.3c.2-.6.5-1,1-1.3s1.1-.4,1.7-.4.6,0,.9.1.6.2.9.4.5.4.6.7.2.7.2,1.1v4.4h-1.5v-.9h0c0,.3-.4.5-.7.7s-.7.3-1.2.3h0ZM798.1,235.7c.5,0,.8-.1,1.1-.4s.4-.6.4-.9v-.8s-.2.1-.4.1-.4,0-.6.1-.4,0-.5,0c-.3,0-.6.1-.9.3s-.3.4-.3.7,0,.5.3.6.5.2.8.2h.1Z"/>
    <path class="st5" d="M752.7,251.3c-.6,0-1.2-.1-1.7-.3s-.9-.5-1.1-.9-.4-.8-.4-1.3,0-.7.2-1,.4-.6.7-.8.6-.3.9-.4h0c-.4-.2-.8-.4-1.1-.7s-.4-.8-.4-1.2,0-.8.4-1.2.6-.6,1-.8.9-.3,1.5-.3,1.1.1,1.5.3.8.5,1,.8.4.8.4,1.2,0,.9-.4,1.2-.6.6-1.1.7h0c.3.1.6.2.9.5s.5.5.7.8.2.6.2,1,0,.9-.4,1.3-.7.7-1.1.9-1,.3-1.7.3h0ZM752.7,250c.5,0,.9-.1,1.2-.4s.4-.6.4-1-.2-.8-.5-1-.7-.4-1.2-.4-.9.1-1.2.4-.5.6-.5,1,0,.7.4,1,.7.4,1.2.4h.2ZM752.7,246.1c.4,0,.7-.1,1-.4s.4-.5.4-.9,0-.7-.4-.9-.6-.3-1-.3-.7.1-1,.3-.4.5-.4.9,0,.7.4.9.6.4,1,.4Z"/>
    <path class="st5" d="M757,253.4l.5-3.5h1.6l-1,3.5h-1.1Z"/>
    <path class="st5" d="M761,251.1l3.7-7.4h-4.3v-1.3h5.9v1.3l-3.7,7.4h-1.6Z"/>
    <path class="st5" d="M770.6,251.1v-6.6h2.3l1.1,2.9c0,.3.2.7.3,1.1s.2.8.2,1.2c0-.4,0-.8.2-1.2s.2-.8.3-1.1l1.1-2.9h2.3v6.6h-1.5v-5.5c0,.5-.2.9-.4,1.3s-.3.8-.4,1.2l-1.1,2.9h-1.3l-1.1-2.9c0-.4-.3-.8-.4-1.2s-.2-.8-.4-1.3v5.4h-1.5.3Z"/>
    <path class="st5" d="M779.8,247.1v-.7l1.8-1.7c.2-.3.4-.5.6-.6s.2-.4.2-.6,0-.4-.2-.6c-.2-.1-.4-.2-.6-.2s-.5,0-.6.2c-.2.2-.2.4-.2.6h-.9c0-.3,0-.6.2-.8,0-.2.3-.4.6-.6s.6-.2.9-.2.6,0,.9.2c.3.1.5.3.6.5s.2.5.2.8,0,.4,0,.6c0,.2-.2.4-.4.6-.2.2-.4.5-.8.8l-.9.9h2.2v.8h-3.5Z"/>
  </g>
  <g>
    <path class="st5" d="M741.7,336.5c-.8,0-1.4-.2-2.1-.5s-1.1-.9-1.4-1.5-.5-1.5-.5-2.4.2-1.7.5-2.4.8-1.2,1.4-1.5,1.3-.5,2-.5,1.2.1,1.7.4,1,.6,1.3,1,.6,1,.7,1.6h-1.6c0-.5-.3-.9-.7-1.2s-.8-.4-1.4-.4-1.3.3-1.8.8-.7,1.3-.7,2.3.2,1.8.7,2.3,1,.8,1.8.8,1-.1,1.4-.4.6-.7.7-1.2h1.6c0,.6-.3,1.1-.6,1.5s-.7.8-1.3,1.1-1.1.4-1.8.4v-.2Z"/>
    <path class="st5" d="M750.3,327.2l-2.8,10.5h-1.3l2.8-10.5h1.3Z"/>
    <path class="st5" d="M751.3,336.4v-6.6h2.7c.8,0,1.4.2,1.8.5s.7.7.7,1.3,0,.7-.4.9-.6.4-1,.5c.5,0,.9.2,1.2.5s.5.7.5,1.1-.2,1-.6,1.3-1,.5-1.8.5h-3.2,0ZM752.7,332.5h1.3c.3,0,.6,0,.7-.2s.3-.3.3-.6,0-.4-.3-.5-.4-.2-.8-.2h-1.3v1.5h0ZM752.7,335.2h1.7c.3,0,.5,0,.7-.2s.2-.3.2-.6,0-.5-.2-.6-.4-.2-.7-.2h-1.7v1.6h0Z"/>
    <path class="st5" d="M764.5,327.6v8.7h-1.6v-7.3h0l-2,1.5v-1.5l1.9-1.4h1.7,0Z"/>
    <path class="st5" d="M769.6,327.6v8.7h-1.6v-7.3h0l-2,1.5v-1.5l1.9-1.4h1.7,0Z"/>
    <path class="st5" d="M771.2,338.6l.5-3.5h1.6l-1,3.5h-1.1Z"/>
    <path class="st5" d="M777.9,336.5c-.4,0-.8,0-1.2-.2s-.8-.4-1.1-.7-.6-.8-.8-1.3-.3-1.2-.3-2,0-1.8.4-2.6.7-1.2,1.2-1.6,1.1-.6,1.8-.6,1,.1,1.4.3.8.5,1,.9.4.8.5,1.3h-1.5c0-.3-.2-.6-.5-.8s-.6-.3-.9-.3c-.6,0-1.1.3-1.4.8s-.5,1.3-.5,2.2h0c.2-.4.5-.7.9-.9s.8-.3,1.3-.3,1,.1,1.4.4.7.6,1,1,.4.9.4,1.5,0,1.1-.4,1.5-.6.8-1.1,1.1-1,.4-1.6.4h0ZM777.9,335.2c.3,0,.6,0,.8-.2s.4-.4.6-.6.2-.5.2-.9,0-.6-.2-.8-.3-.5-.6-.6-.5-.2-.8-.2-.6,0-.8.2-.4.4-.6.6-.2.5-.2.8,0,.6.2.8.3.5.6.6.5.2.8.2h0Z"/>
    <path class="st5" d="M785.5,336.4v-6.6h2.3l1.1,2.9c0,.3.2.7.3,1.1s.2.8.2,1.2c0-.4,0-.8.2-1.2s.2-.8.3-1.1l1.1-2.9h2.3v6.6h-1.5v-5.5c0,.5-.2.9-.4,1.3s-.3.8-.4,1.2l-1.1,2.9h-1.3l-1.1-2.9c0-.4-.3-.8-.4-1.2s-.2-.8-.4-1.3v5.4h-1.5.3Z"/>
    <path class="st5" d="M794.7,332.4v-.7l1.8-1.7c.2-.3.4-.5.6-.6,0-.2.2-.4.2-.6s0-.4-.2-.6c-.2-.1-.4-.2-.6-.2s-.5,0-.6.2c-.2.2-.2.4-.2.6h-.9c0-.3,0-.6.2-.8,0-.2.3-.4.6-.6.3-.1.6-.2.9-.2s.6,0,.9.2c.3.1.5.3.6.5s.2.5.2.8,0,.4,0,.6c0,.2-.2.4-.4.6s-.4.5-.8.8l-.9.9h2.2v.8h-3.5Z"/>
  </g>
  <g>
    <path class="st5" d="M210.2,332.6l3.1-4.5-2.9-4.3h1.8l1.1,1.6c.2.3.4.6.5.9s.3.5.4.7c.1-.2.3-.5.4-.7s.3-.5.5-.9l1.1-1.6h1.8l-2.9,4.2,3.1,4.5h-1.8l-1.3-2c-.2-.3-.4-.6-.5-.8s-.2-.4-.4-.7c-.1.2-.2.4-.4.7s-.3.5-.5.8l-1.3,2h-1.8Z"/>
    <path class="st5" d="M221.8,332.7c-.6,0-1.2-.1-1.7-.4s-.8-.7-1.1-1.2-.4-1.1-.4-1.8.1-1.3.4-1.8.6-.9,1.1-1.2,1-.4,1.7-.4,1.2.1,1.7.4.8.7,1.1,1.2.4,1.1.4,1.8-.1,1.3-.4,1.8-.6.9-1.1,1.2-1,.4-1.7.4ZM221.8,331.5c.4,0,.7,0,.9-.3s.4-.4.5-.8.2-.7.2-1.1,0-.8-.2-1.1-.3-.6-.5-.8-.5-.3-.9-.3-.6,0-.9.3-.4.4-.5.8-.2.7-.2,1.1,0,.8.2,1.1.3.6.5.8.5.3.9.3Z"/>
    <path class="st5" d="M225.6,332.6v-1.3h.2c.2,0,.4,0,.5-.2s.2-.4.3-.7.1-.8.1-1.4v-3h5v6.6h-1.5v-5.3h-1.9v2.1c-.1,1.1-.3,2-.7,2.5s-.9.8-1.6.8h-.5,0Z"/>
    <path class="st5" d="M232.7,332.6v-1.3h.2c.2,0,.4,0,.5-.2s.2-.4.3-.7.1-.8.1-1.4v-3h5v6.6h-1.5v-5.3h-1.9v2.1c-.1,1.1-.3,2-.7,2.5s-.9.8-1.6.8h-.5,0Z"/>
    <path class="st5" d="M204.3,345.3v-1.2l3.7-5.9h1.9v5.8h1.1v1.3h-1.1v1.6h-1.5v-1.6h-4.2.1ZM208.5,344v-4h0l-2.5,4h2.6-.1Z"/>
    <path class="st5" d="M212,349.2l.5-3.5h1.6l-1,3.5h-1.1Z"/>
    <path class="st5" d="M215.9,347l3.7-7.4h-4.3v-1.3h5.9v1.3l-3.7,7.4h-1.6,0Z"/>
    <path class="st5" d="M225.3,347.1c-.6,0-1.1-.1-1.5-.3s-.8-.5-1.1-.9-.4-.8-.4-1.3h1.5c0,.4.2.7.5.9s.6.3,1,.3.8-.2,1.2-.5.5-.7.5-1.2-.2-.9-.5-1.2-.7-.5-1.2-.5-.5,0-.8.1-.5.2-.6.4l-1.4-.2.5-4.5h5.1v1.3h-3.8l-.2,2.3h0c.2-.2.4-.3.7-.5s.6-.2,1-.2,1,.1,1.4.4.7.6,1,1,.4.9.4,1.5-.1,1.1-.4,1.5-.6.8-1.1,1.1-1,.4-1.6.4h-.2Z"/>
    <path class="st5" d="M232.8,347v-6.6h2.3l1.1,2.9c.1.3.2.7.3,1.1s.2.8.2,1.2c0-.4.1-.8.2-1.2s.2-.8.3-1.1l1.1-2.9h2.3v6.6h-1.5v-5.5c-.1.5-.2.9-.4,1.3s-.3.8-.4,1.2l-1.1,2.9h-1.3l-1.1-2.9c-.1-.4-.3-.8-.4-1.2s-.2-.8-.4-1.3v5.4h-1.5.3Z"/>
    <path class="st5" d="M242,343v-.7l1.8-1.7c.2-.3.4-.5.6-.6s.2-.4.2-.6,0-.4-.2-.6c-.2-.1-.4-.2-.6-.2s-.5,0-.6.2c-.2.2-.2.4-.2.6h-.9c0-.3,0-.6.2-.8s.4-.4.6-.6c.3-.1.6-.2.9-.2s.6,0,.9.2c.3.1.5.3.6.5s.2.5.2.8,0,.4-.1.6c0,.2-.2.4-.4.6s-.4.5-.8.8l-.9.9h2.2v.8h-3.5Z"/>
  </g>
  <g>
    <path class="st5" d="M345,319v-8.7h1.6v3.6h1.1l2.6-3.6h1.9l-3.2,4.2,3.3,4.5h-1.9l-2.7-3.8h-1.1v3.8h-1.6,0Z"/>
    <path class="st5" d="M352.9,321.3l.4-1.2h.2c.3.1.6.1.9,0s.4-.4.5-.7v-.4l-2.4-6.6h1.6l1.2,3.6c0,.3.2.6.2.9s.1.6.2.9c0-.3.1-.6.2-.9s.2-.6.3-.8l1.2-3.6h1.6l-2.8,7.4c-.2.5-.5.9-.8,1.2s-.8.4-1.4.4h-.6c-.2,0-.3,0-.4-.1h-.1Z"/>
    <path class="st5" d="M359.5,319l2.2-3.4-2-3.2h1.7l.7,1.1c.1.2.2.4.4.7s.2.4.3.6c.1-.2.2-.4.3-.6s.2-.4.4-.7l.7-1.1h1.6l-2.1,3.2,2.2,3.3h-1.7l-.8-1.3c-.1-.2-.2-.4-.4-.6s-.2-.4-.3-.6c0,.2-.2.4-.3.6s-.2.4-.3.6l-.8,1.3h-1.8Z"/>
    <path class="st5" d="M368.4,312.4v2.6h2.7v-2.6h1.5v6.6h-1.5v-2.7h-2.7v2.7h-1.5v-6.6h1.5Z"/>
    <path class="st5" d="M379.4,319h-1.5v-2.3h-1.3l-1.4,2.3h-1.7l1.6-2.5c-.4-.2-.7-.4-1-.7s-.3-.7-.3-1.1c0-.6.2-1.2.7-1.6s1.1-.6,2-.6h2.9v6.6h0ZM377.9,315.6v-1.9h-1.2c-.5,0-.8,0-1,.3s-.3.4-.3.7.1.5.3.7.5.2,1,.2h1.2Z"/>
    <path class="st5" d="M341.5,331.8v-1.2l3.7-5.9h1.9v5.8h1.1v1.3h-1.1v1.6h-1.5v-1.6h-4.2.1ZM345.7,330.5v-4h0l-2.5,4h2.6-.1Z"/>
    <path class="st5" d="M349.2,335.6l.5-3.5h1.6l-1,3.5h-1.1Z"/>
    <path class="st5" d="M353.1,333.4l3.7-7.4h-4.3v-1.3h5.9v1.3l-3.7,7.4h-1.6Z"/>
    <path class="st5" d="M362.6,333.5c-.6,0-1.2-.1-1.7-.3s-.9-.5-1.1-.9-.4-.8-.4-1.3,0-.7.2-1,.4-.6.7-.8.6-.3.9-.4h0c-.4-.2-.8-.4-1.1-.7s-.4-.8-.4-1.2.1-.8.4-1.2.6-.6,1-.8.9-.3,1.5-.3,1.1.1,1.5.3.8.5,1,.8.4.8.4,1.2-.1.9-.4,1.2-.6.6-1.1.7h0c.3.1.6.2.9.5s.5.5.7.8.2.6.2,1-.1.9-.4,1.3-.7.7-1.1.9-1,.3-1.7.3h0ZM362.6,332.3c.5,0,.9-.1,1.2-.4s.4-.6.4-1-.2-.8-.5-1-.7-.4-1.2-.4-.9.1-1.2.4-.5.6-.5,1,.1.7.4,1,.7.4,1.2.4h.2ZM362.6,328.3c.4,0,.7-.1,1-.4s.4-.5.4-.9-.1-.7-.4-.9-.6-.3-1-.3-.7.1-1,.3-.4.5-.4.9.1.7.4.9.6.4,1,.4Z"/>
    <path class="st5" d="M370.3,333.4v-6.6h2.3l1.1,2.9c.1.3.2.7.3,1.1s.2.8.2,1.2c0-.4.1-.8.2-1.2s.2-.8.3-1.1l1.1-2.9h2.3v6.6h-1.5v-5.5c-.1.5-.2.9-.4,1.3s-.3.8-.4,1.2l-1.1,2.9h-1.3l-1.1-2.9c-.1-.4-.3-.8-.4-1.2s-.2-.8-.4-1.3v5.4h-1.5.3Z"/>
    <path class="st5" d="M379.5,329.4v-.7l1.8-1.7c.2-.3.4-.5.6-.6s.2-.4.2-.6,0-.4-.2-.6-.4-.2-.6-.2-.5,0-.6.2c-.2.2-.2.4-.2.6h-.9c0-.3,0-.6.2-.8s.4-.4.6-.6c.3-.1.6-.2.9-.2s.6,0,.9.2c.3.1.5.3.6.5s.2.5.2.8,0,.4-.1.6c0,.2-.2.4-.4.6-.2.2-.4.5-.8.8l-.9.9h2.2v.8h-3.5Z"/>
  </g>
  <path class="st5" d="M50.4,98.9c-8.3,0-15.1-6.8-15.1-15.1s6.8-15.1,15.1-15.1,15.1,6.8,15.1,15.1-6.8,15.1-15.1,15.1ZM50.4,69.8c-7.8,0-14.1,6.3-14.1,14.1s6.3,14.1,14.1,14.1,14.1-6.3,14.1-14.1-6.3-14.1-14.1-14.1Z"/>
  <path class="st5" d="M46.5,394.3l3-8.7h2l3.1,8.7h-1.7l-.7-2.2h-3.3l-.7,2.2s-1.7,0-1.7,0ZM49.3,390.9h2.4l-.4-1.1c0-.4-.3-.8-.4-1.3s-.3-1-.5-1.6c-.2.6-.3,1.2-.4,1.7s-.3.9-.4,1.3l-.4,1.1h.1Z"/>
  <path class="st5" d="M50.4,404.4c-8.3,0-15.1-6.8-15.1-15.1s6.8-15.1,15.1-15.1,15.1,6.8,15.1,15.1-6.8,15.1-15.1,15.1ZM50.4,375.3c-7.8,0-14.1,6.3-14.1,14.1s6.3,14.1,14.1,14.1,14.1-6.3,14.1-14.1-6.3-14.1-14.1-14.1Z"/>
  <path class="st5" d="M842.7,460h-256.5v-64.7h256.5v64.7ZM587.2,459h254.5v-62.7h-254.5v62.7Z"/>
  <g>
    <path class="st5" d="M863.2,182.7h-76.5v-62.7h76.5v62.7ZM787.8,181.7h74.5v-60.7h-74.5v60.7Z"/>
    <rect class="st5" x="853.5" y="120.4" width="1" height="61.7"/>
    <rect class="st5" x="787.3" y="150.8" width="75.5" height="1"/>
    <rect class="st5" x="849.5" y="120.1" width="1" height="31.9" transform="translate(-6.8 218.6) rotate(-14.6)"/>
    <rect class="st5" x="834" y="166.1" width="31.9" height="1" transform="translate(474.5 947.2) rotate(-75.4)"/>
  </g>
  <rect class="st5" x="659.1" y="382.9" width="112.1" height="12.9"/>
  <g>
    <path class="st5" d="M1091.6,137.3h-4.9v-1h4.9v1.1h0ZM1082.8,137.3h-5v-1h5v1ZM1073.8,137.3h-5v-1h5v1ZM1064.8,137.3h-5.5v-.5h.5v-.5h5v1ZM1060.2,132.8h-1v-5h1v5ZM1091.6,132.2h-1v-5h1v5ZM1060.2,123.8h-1v-5h1v5ZM1091.6,123.2h-1v-5h1v5ZM1060.2,114.8h-1v-5h1v5ZM1091.6,114.2h-1v-5h1v5ZM1060.2,105.8h-1v-5h1v5ZM1091.6,105.2h-1v-5h1v5ZM1060.2,96.8h-1v-5h1v5ZM1091.6,96.2h-1v-5h1v5ZM1086.6,92.2h-5v-1h5v1ZM1077.6,92.2h-5v-1h5v1ZM1068.6,92.2h-5v-1h5v1Z"/>
    <path class="st5" d="M1171.8,167.7h-62.7v-76.5h62.7v76.5ZM1109.9,166.7h60.7v-74.5h-60.7v74.5Z"/>
    <rect class="st5" x="1109.4" y="99.9" width="61.7" height="1"/>
    <rect class="st5" x="1139.8" y="91.7" width="1" height="75.5"/>
    <rect class="st5" x="1109" y="104" width="31.9" height="1" transform="translate(10 286.9) rotate(-14.6)"/>
    <rect class="st5" x="1155" y="88.4" width="1" height="31.9" transform="translate(763.2 1196.3) rotate(-75.4)"/>
  </g>
  <g>
    <path class="st5" d="M1171.6,383.4h-62.7v-76.5h62.7v76.5ZM1109.9,382.4h60.7v-74.5h-60.7v74.5Z"/>
    <rect class="st5" x="1109.4" y="373.7" width="61.7" height="1"/>
    <rect class="st5" x="1139.7" y="307.4" width="1" height="75.5"/>
    <rect class="st5" x="1139.7" y="369.8" width="31.9" height="1" transform="translate(-56 303.3) rotate(-14.6)"/>
    <rect class="st5" x="1124.1" y="354.1" width="1" height="31.9" transform="translate(483 1365.1) rotate(-75.4)"/>
  </g>
  <g>
    <polygon class="st5" points="1092.6 389.8 1089.6 389.8 1089.6 388.8 1091.6 388.8 1091.6 386.8 1092.6 386.8 1092.6 389.8"/>
    <path class="st5" d="M1084.9,389.8h-5.9v-1h5.9v1ZM1074.3,389.8h-5.9v-1h5.9v1Z"/>
    <polygon class="st5" points="1063.7 389.8 1060.7 389.8 1060.7 386.8 1061.7 386.8 1061.7 388.8 1063.7 388.8 1063.7 389.8"/>
    <path class="st5" d="M1061.7,383.2h-1v-4.6h1v4.6ZM1061.7,374.9h-1v-4.6h1v4.6ZM1061.7,366.7h-1v-4.6h1v4.6ZM1061.7,358.4h-1v-4.6h1v4.6ZM1061.7,350.2h-1v-4.6h1v4.6Z"/>
    <polygon class="st5" points="1061.7 342 1060.7 342 1060.7 339 1063.7 339 1063.7 340 1061.7 340 1061.7 342"/>
    <path class="st5" d="M1084.9,340h-5.9v-1h5.9v1ZM1074.3,340h-5.9v-1h5.9v1Z"/>
    <polygon class="st5" points="1092.6 342 1091.6 342 1091.6 340 1089.6 340 1089.6 339 1092.6 339 1092.6 342"/>
    <path class="st5" d="M1092.6,383.2h-1v-4.6h1v4.6ZM1092.6,374.9h-1v-4.6h1v4.6ZM1092.6,366.7h-1v-4.6h1v4.6ZM1092.6,358.4h-1v-4.6h1v4.6ZM1092.6,350.2h-1v-4.6h1v4.6Z"/>
  </g>
  <g>
    <path class="st5" d="M1221.4,224.8h-14.9v-6.6h14.9v6.6ZM1207.6,223.8h12.9v-4.6h-12.9v4.6Z"/>
    <path class="st5" d="M1214,245.2c-4.1,0-7.4-3.3-7.4-7.4v-13.9h14.9v13.9c0,4.1-3.3,7.4-7.4,7.4h0ZM1207.6,224.8v12.9c0,3.5,2.9,6.4,6.4,6.4s6.4-2.9,6.4-6.4v-12.9h-12.9,0Z"/>
    <path class="st5" d="M1196.1,236.6h-12.9c-2.9,0-5.2-2.3-5.2-5.2v-13h23.3v13c0,2.9-2.3,5.2-5.2,5.2h0ZM1179.1,219.4v12c0,2.3,1.9,4.2,4.2,4.2h12.9c2.3,0,4.2-1.9,4.2-4.2v-12h-21.3,0Z"/>
    <rect class="st5" x="1189.2" y="218.9" width="1" height="13.2"/>
    <rect class="st5" x="1185.4" y="226.6" width="8.6" height="1"/>
    <path class="st5" d="M1263.1,265.6h-36.2v-47.4h36.2v47.4ZM1227.9,264.6h34.2v-45.4h-34.2v45.4Z"/>
    <path class="st5" d="M1256.9,262.7h-24.2c-1.6,0-2.9-1.3-2.9-2.9v-34.9c0-1.6,1.3-2.9,2.9-2.9h24.2c1.6,0,2.9,1.3,2.9,2.9v34.9c0,1.6-1.3,2.9-2.9,2.9ZM1232.7,223c-1.1,0-1.9.9-1.9,1.9v34.9c0,1.1.9,1.9,1.9,1.9h24.2c1.1,0,1.9-.9,1.9-1.9v-34.9c0-1.1-.9-1.9-1.9-1.9h-24.2Z"/>
    <path class="st5" d="M1253.9,231.1c-1.5,0-2.8-1.2-2.8-2.8s1.2-2.8,2.8-2.8,2.8,1.2,2.8,2.8-1.2,2.8-2.8,2.8ZM1253.9,226.6c-1,0-1.8.8-1.8,1.8s.8,1.8,1.8,1.8,1.8-.8,1.8-1.8-.8-1.8-1.8-1.8Z"/>
  </g>
  <g>
    <path class="st5" d="M1067.2,164.4c-.8,0-1.4-.2-2.1-.5s-1.1-.9-1.4-1.5-.5-1.5-.5-2.4.2-1.7.5-2.4.8-1.2,1.4-1.5,1.3-.5,2-.5,1.2.1,1.7.4,1,.6,1.3,1,.6,1,.7,1.6h-1.6c0-.5-.3-.9-.7-1.2s-.8-.4-1.4-.4-1.3.3-1.8.8-.7,1.3-.7,2.3.2,1.8.7,2.3,1,.8,1.8.8,1-.1,1.4-.4.6-.7.7-1.2h1.6c0,.6-.3,1.1-.6,1.5s-.7.8-1.3,1.1-1.1.4-1.8.4v-.2Z"/>
    <path class="st5" d="M1077.9,157.7v6.6h-1.5v-5.3h-2.6v5.3h-1.5v-6.6h5.6Z"/>
    <path class="st5" d="M1081.3,164.4c-.4,0-.8,0-1.1-.2s-.6-.4-.8-.7-.3-.7-.3-1.1,0-.9.4-1.1.6-.5.9-.6.8-.2,1.2-.2c.6,0,1-.1,1.2-.2s.4-.2.4-.4h0c0-.3,0-.6-.3-.8s-.5-.3-.8-.3-.7,0-.9.3-.4.4-.5.6l-1.4-.3c.2-.6.5-1,1-1.3s1.1-.4,1.7-.4.6,0,.9.1.6.2.9.4.5.4.6.7.2.7.2,1.1v4.4h-1.5v-.9h0c0,.3-.4.5-.7.7s-.7.3-1.2.3h.1ZM1081.7,163.2c.5,0,.8-.1,1.1-.4s.4-.6.4-.9v-.8s-.2.1-.4.1-.4,0-.6.1-.4,0-.5,0c-.3,0-.6.1-.9.3s-.3.4-.3.7,0,.5.3.6.5.2.8.2h0Z"/>
    <path class="st5" d="M1085.7,164.2v-1.3h.2c.2,0,.4,0,.5-.2s.2-.4.3-.7,0-.8,0-1.4v-3h5v6.6h-1.5v-5.3h-1.9v2.1c0,1.1-.3,2-.7,2.5s-.9.8-1.6.8h-.5,0Z"/>
    <path class="st5" d="M1095,159.8h1.5c.8,0,1.5.2,1.9.6s.7.9.7,1.6-.2,1.2-.7,1.6-1.1.6-1.9.6h-3v-6.6h1.5v2.1h0ZM1095,161.1v1.9h1.5c.3,0,.6,0,.8-.3s.3-.4.3-.7,0-.5-.3-.7-.5-.3-.8-.3h-1.5Z"/>
    <path class="st5" d="M1102,157.7v2.6h2.7v-2.6h1.5v6.6h-1.5v-2.7h-2.7v2.7h-1.5v-6.6h1.5Z"/>
    <path class="st5" d="M1113,164.2h-1.5v-2.3h-1.3l-1.4,2.3h-1.7l1.6-2.5c-.4-.2-.7-.4-1-.7s-.3-.7-.3-1.1c0-.6.2-1.2.7-1.6s1.1-.6,2-.6h2.9v6.6h0ZM1111.6,160.8v-1.9h-1.2c-.5,0-.8,0-1,.3s-.3.4-.3.7,0,.5.3.7.5.2,1,.2h1.2Z"/>
    <path class="st5" d="M1068.7,178.6v-1.1l3-3c.4-.4.8-.8,1-1.1s.3-.6.3-1,0-.7-.4-1-.6-.4-1-.4-.8.1-1,.4-.4.6-.4,1.1h-1.5c0-.6,0-1,.4-1.4s.6-.7,1-1,1-.3,1.5-.3,1.1.1,1.5.3.8.5,1,.9.4.8.4,1.3,0,.6-.2.9-.3.7-.7,1-.8.9-1.3,1.4l-1.5,1.5h3.8v1.3h-6v.2Z"/>
    <path class="st5" d="M1079.6,169.9v8.7h-1.6v-7.3h0l-2,1.5v-1.5l1.9-1.4h1.7Z"/>
    <path class="st5" d="M1081.2,180.9l.5-3.5h1.6l-1,3.5h-1.1Z"/>
    <path class="st5" d="M1087.8,178.8c-.6,0-1.1-.1-1.5-.3s-.8-.5-1.1-.9-.4-.8-.4-1.3h1.5c0,.4.2.7.5.9s.6.3,1,.3.8-.2,1.2-.5.5-.7.5-1.2-.2-.9-.5-1.2-.7-.5-1.2-.5-.5,0-.8.1-.5.2-.6.4l-1.4-.2.5-4.5h5.1v1.3h-3.8l-.2,2.3h0c.2-.2.4-.3.7-.5s.6-.2,1-.2,1,.1,1.4.4.7.6,1,1,.4.9.4,1.5,0,1.1-.4,1.5-.6.8-1.1,1.1-1,.4-1.6.4h-.2Z"/>
    <path class="st5" d="M1095.4,178.6v-6.6h2.3l1.1,2.9c0,.3.2.7.3,1.1s.2.8.2,1.2c0-.4,0-.8.2-1.2s.2-.8.3-1.1l1.1-2.9h2.3v6.6h-1.5v-5.5c0,.5-.2.9-.4,1.3s-.3.8-.4,1.2l-1.1,2.9h-1.3l-1.1-2.9c0-.4-.3-.8-.4-1.2s-.2-.8-.4-1.3v5.4h-1.5.3Z"/>
    <path class="st5" d="M1104.6,174.6v-.7l1.8-1.7c.2-.3.4-.5.6-.6,0-.2.2-.4.2-.6s0-.4-.2-.6c-.2-.1-.4-.2-.6-.2s-.5,0-.6.2c-.2.2-.2.4-.2.6h-.9c0-.3,0-.6.2-.8,0-.2.4-.4.6-.6.3-.1.6-.2.9-.2s.6,0,.9.2c.3.1.5.3.6.5s.2.5.2.8,0,.4,0,.6c0,.2-.2.4-.4.6-.2.2-.4.5-.8.8l-.9.9h2.2v.8h-3.5,0Z"/>
  </g>
  <g>
    <path class="st5" d="M1094.1,285.4c-.8,0-1.4-.2-2.1-.5s-1.1-.9-1.4-1.5-.5-1.5-.5-2.4.2-1.7.5-2.4.8-1.2,1.4-1.5,1.3-.5,2-.5,1.2.1,1.7.4,1,.6,1.3,1,.6,1,.7,1.6h-1.6c0-.5-.3-.9-.7-1.2s-.8-.4-1.4-.4-1.3.3-1.8.8-.7,1.3-.7,2.3.2,1.8.7,2.3,1,.8,1.8.8,1-.1,1.4-.4.6-.7.7-1.2h1.6c0,.6-.3,1.1-.6,1.5s-.7.8-1.3,1.1-1.1.4-1.8.4v-.2Z"/>
    <path class="st5" d="M1104.8,278.8v6.6h-1.5v-5.3h-2.6v5.3h-1.5v-6.6h5.6Z"/>
    <path class="st5" d="M1108.2,285.5c-.4,0-.8,0-1.1-.2s-.6-.4-.8-.7-.3-.7-.3-1.1,0-.9.4-1.1.6-.5.9-.6.8-.2,1.2-.2c.6,0,1-.1,1.2-.2s.4-.2.4-.4h0c0-.3,0-.6-.3-.8s-.5-.3-.8-.3-.7,0-.9.3-.4.4-.5.6l-1.4-.3c.2-.6.5-1,1-1.3s1.1-.4,1.7-.4.6,0,.9.1.6.2.9.4.5.4.6.7.2.7.2,1.1v4.4h-1.5v-.9h0c0,.3-.4.5-.7.7s-.7.3-1.2.3h.1ZM1108.6,284.3c.5,0,.8-.1,1.1-.4s.4-.6.4-.9v-.8s-.2.1-.4.1-.4,0-.6.1-.4,0-.5,0c-.3,0-.6.1-.9.3s-.3.4-.3.7,0,.5.3.6.5.2.8.2h0Z"/>
    <path class="st5" d="M1112.6,285.3v-1.3h.2c.2,0,.4,0,.5-.2s.2-.4.3-.7,0-.8,0-1.4v-3h5v6.6h-1.5v-5.3h-1.9v2.1c0,1.1-.3,2-.7,2.5s-.9.8-1.6.8h-.5,0Z"/>
    <path class="st5" d="M1121.9,280.9h1.5c.8,0,1.5.2,1.9.6s.7.9.7,1.6-.2,1.2-.7,1.6-1.1.6-1.9.6h-3v-6.6h1.5v2.1h0ZM1121.9,282.2v1.9h1.5c.3,0,.6,0,.8-.3s.3-.4.3-.7,0-.5-.3-.7-.5-.3-.8-.3h-1.5Z"/>
    <path class="st5" d="M1128.9,278.8v2.6h2.7v-2.6h1.5v6.6h-1.5v-2.7h-2.7v2.7h-1.5v-6.6h1.5Z"/>
    <path class="st5" d="M1139.9,285.3h-1.5v-2.3h-1.3l-1.4,2.3h-1.7l1.6-2.5c-.4-.2-.7-.4-1-.7s-.3-.7-.3-1.1c0-.6.2-1.2.7-1.6s1.1-.6,2-.6h2.9v6.6h0ZM1138.4,281.9v-1.9h-1.2c-.5,0-.8,0-1,.3s-.3.4-.3.7,0,.5.3.7.5.2,1,.2h1.2Z"/>
    <path class="st5" d="M1095.6,299.7v-1.1l3-3c.4-.4.8-.8,1-1.1s.3-.6.3-1,0-.7-.4-1-.6-.4-1-.4-.8.1-1,.4-.4.6-.4,1.1h-1.5c0-.6,0-1,.4-1.4s.6-.7,1-1,1-.3,1.5-.3,1.1.1,1.5.3.8.5,1,.9.4.8.4,1.3,0,.6-.2.9-.3.7-.7,1-.8.9-1.3,1.4l-1.5,1.5h3.8v1.3h-6v.2Z"/>
    <path class="st5" d="M1106.5,291v8.7h-1.6v-7.3h0l-2,1.5v-1.5l1.9-1.4h1.7Z"/>
    <path class="st5" d="M1108.1,302l.5-3.5h1.6l-1,3.5h-1.1Z"/>
    <path class="st5" d="M1114.7,299.8c-.6,0-1.1-.1-1.5-.3s-.8-.5-1.1-.9-.4-.8-.4-1.3h1.5c0,.4.2.7.5.9s.6.3,1,.3.8-.2,1.2-.5.5-.7.5-1.2-.2-.9-.5-1.2-.7-.5-1.2-.5-.5,0-.8.1-.5.2-.6.4l-1.4-.2.5-4.5h5.1v1.3h-3.8l-.2,2.3h0c.2-.2.4-.3.7-.5s.6-.2,1-.2,1,.1,1.4.4.7.6,1,1,.4.9.4,1.5,0,1.1-.4,1.5-.6.8-1.1,1.1-1,.4-1.6.4h-.2Z"/>
    <path class="st5" d="M1122.2,299.7v-6.6h2.3l1.1,2.9c0,.3.2.7.3,1.1s.2.8.2,1.2c0-.4,0-.8.2-1.2s.2-.8.3-1.1l1.1-2.9h2.3v6.6h-1.5v-5.5c0,.5-.2.9-.4,1.3s-.3.8-.4,1.2l-1.1,2.9h-1.3l-1.1-2.9c0-.4-.3-.8-.4-1.2s-.2-.8-.4-1.3v5.4h-1.5.3Z"/>
    <path class="st5" d="M1131.5,295.7v-.7l1.8-1.7c.2-.3.4-.5.6-.6s.2-.4.2-.6,0-.4-.2-.6c-.2-.1-.4-.2-.6-.2s-.5,0-.6.2-.2.4-.2.6h-.9c0-.3,0-.6.2-.8,0-.2.4-.4.6-.6.3-.1.6-.2.9-.2s.6,0,.9.2c.3.1.5.3.6.5s.2.5.2.8,0,.4,0,.6c0,.2-.2.4-.4.6-.2.2-.4.5-.8.8l-.9.9h2.2v.8h-3.5,0Z"/>
  </g>
  <g>
    <path class="st5" d="M1111.8,250c-.8,0-1.4-.2-2.1-.5s-1.1-.9-1.4-1.5-.5-1.5-.5-2.4.2-1.7.5-2.4.8-1.2,1.4-1.5,1.3-.5,2-.5,1.2.1,1.7.4,1,.6,1.3,1,.6,1,.7,1.6h-1.6c0-.5-.3-.9-.7-1.2s-.8-.4-1.4-.4-1.3.3-1.8.8-.7,1.3-.7,2.3.2,1.8.7,2.3,1,.8,1.8.8,1-.1,1.4-.4.6-.7.7-1.2h1.6c0,.6-.3,1.1-.6,1.5s-.7.8-1.3,1.1-1.1.4-1.8.4v-.2Z"/>
    <path class="st5" d="M1120.4,240.8l-2.8,10.5h-1.3l2.8-10.5h1.3Z"/>
    <path class="st5" d="M1121.4,249.9v-6.6h2.7c.8,0,1.4.2,1.8.5s.7.7.7,1.3,0,.7-.4.9-.6.4-1,.5c.5,0,.9.2,1.2.5s.5.7.5,1.1-.2,1-.6,1.3-1,.5-1.8.5h-3.2.1ZM1122.8,246.1h1.3c.3,0,.6,0,.7-.2s.3-.3.3-.6,0-.4-.3-.5-.4-.2-.8-.2h-1.3v1.5h.1ZM1122.8,248.7h1.7c.3,0,.5,0,.7-.2s.2-.3.2-.6,0-.5-.2-.6-.4-.2-.7-.2h-1.7v1.6Z"/>
    <path class="st5" d="M1134.3,250c-.6,0-1.2-.1-1.7-.3s-.9-.5-1.1-.9-.4-.8-.4-1.3,0-.7.2-1,.4-.6.7-.8.6-.3.9-.4h0c-.4-.2-.8-.4-1.1-.7s-.4-.8-.4-1.2,0-.8.4-1.2.6-.6,1-.8.9-.3,1.5-.3,1.1.1,1.5.3.8.5,1,.8.4.8.4,1.2,0,.9-.4,1.2-.6.6-1.1.7h0c.3.1.6.2.9.5s.5.5.7.8.2.6.2,1,0,.9-.4,1.3-.7.7-1.1.9-1,.3-1.7.3h0ZM1134.3,248.8c.5,0,.9-.1,1.2-.4s.4-.6.4-1-.2-.8-.5-1-.7-.4-1.2-.4-.9.1-1.2.4-.5.6-.5,1,0,.7.4,1,.7.4,1.2.4h.2ZM1134.3,244.8c.4,0,.7-.1,1-.4s.4-.5.4-.9,0-.7-.4-.9-.6-.3-1-.3-.7.1-1,.3-.4.5-.4.9,0,.7.4.9.6.4,1,.4Z"/>
    <path class="st5" d="M1138.6,252.2l.5-3.5h1.6l-1,3.5h-1.1Z"/>
    <path class="st5" d="M1142.6,249.9l3.7-7.4h-4.3v-1.3h5.9v1.3l-3.7,7.4h-1.6Z"/>
    <path class="st5" d="M1152.2,249.9v-6.6h2.3l1.1,2.9c0,.3.2.7.3,1.1s.2.8.2,1.2c0-.4,0-.8.2-1.2s.2-.8.3-1.1l1.1-2.9h2.3v6.6h-1.5v-5.5c0,.5-.2.9-.4,1.3s-.3.8-.4,1.2l-1.1,2.9h-1.3l-1.1-2.9c0-.4-.3-.8-.4-1.2s-.2-.8-.4-1.3v5.4h-1.5.3Z"/>
    <path class="st5" d="M1161.5,245.9v-.7l1.8-1.7c.2-.3.4-.5.6-.6,0-.2.2-.4.2-.6s0-.4-.2-.6c-.2-.1-.4-.2-.6-.2s-.5,0-.6.2c-.2.2-.2.4-.2.6h-.9c0-.3,0-.6.2-.8,0-.2.4-.4.6-.6.3-.1.6-.2.9-.2s.6,0,.9.2c.3.1.5.3.6.5s.2.5.2.8,0,.4,0,.6c0,.2-.2.4-.4.6-.2.2-.4.5-.8.8l-.9.9h2.2v.8h-3.5,0Z"/>
  </g>
  <g>
    <rect class="st1" x="1000" y="383.4" width="59.4" height="11.9"/>
    <path class="st5" d="M1058.9,383.9v10.9h-58.4v-10.9h58.4M1059.9,382.9h-60.4v12.9h60.4v-12.9h0Z"/>
  </g>
  <g>
    <rect class="st1" x="1172.5" y="383.4" width="59.4" height="11.9"/>
    <path class="st5" d="M1231.4,383.9v10.9h-58.4v-10.9h58.4M1232.4,382.9h-60.4v12.9h60.4v-12.9h0Z"/>
  </g>
  <g>
    <rect class="st1" x="1000" y="76.6" width="59.4" height="14.6"/>
    <path class="st5" d="M1058.9,77.2v13.4h-58.4v-13.4h58.4M1059.9,76h-60.4v15.8h60.4v-15.8h0Z"/>
  </g>
  <g>
    <rect class="st1" x="1172.5" y="76.6" width="59.4" height="14.6"/>
    <path class="st5" d="M1231.4,77.2v13.4h-58.4v-13.4h58.4M1232.4,76h-60.4v15.8h60.4v-15.8h0Z"/>
  </g>
  <path class="st5" d="M1298.5,84.4h-4v-.7h4v.7ZM1294.5,84.4h-4v-.7h4v.7ZM1285.6,84.4h-1v-.7h1v.7ZM1279.7,84.4h-4v-.7h4v.7Z"/>
  <path class="st5" d="M1321.4,389.8h-4v-1h4v1ZM1317.4,389.8h-4v-1h4v1ZM1308.4,389.8h-1v-1h1v1ZM1302.4,389.8h-4v-1h4v1ZM1298.4,389.8h-4v-1h4v1ZM1289.4,389.8h-1v-1h1v1ZM1283.4,389.8h-4v-1h4v1ZM1279.4,389.8h-4v-1h4v1ZM1270.4,389.8h-1v-1h1v1ZM1264.4,389.8h-4v-1h4v1ZM1260.4,389.8h-4v-1h4v1ZM1251.4,389.8h-1v-1h1v1ZM1245.4,389.8h-4v-1h4v1ZM1241.4,389.8h-4v-1h4v1ZM1232.4,389.8h-1v-1h1v1ZM1226.4,389.8h-4v-1h4v1ZM1222.4,389.8h-4v-1h4v1ZM1213.4,389.8h-1v-1h1v1ZM1207.4,389.8h-4v-1h4v1ZM1203.4,389.8h-4v-1h4v1ZM1194.4,389.8h-1v-1h1v1ZM1188.4,389.8h-4v-1h4v1ZM1184.4,389.8h-4v-1h4v1ZM1175.4,389.8h-1v-1h1v1ZM1169.4,389.8h-4v-1h4v1ZM1165.4,389.8h-4v-1h4v1ZM1156.4,389.8h-1v-1h1v1ZM1150.4,389.8h-4v-1h4v1ZM1146.4,389.8h-4v-1h4v1ZM1137.4,389.8h-1v-1h1v1ZM1131.4,389.8h-4v-1h4v1ZM1127.4,389.8h-4v-1h4v1ZM1118.4,389.8h-1v-1h1v1ZM1112.4,389.8h-4v-1h4v1ZM1108.4,389.8h-4v-1h4v1ZM1099.4,389.8h-1v-1h1v1ZM1093.4,389.8h-4v-1h4v1ZM1089.4,389.8h-4v-1h4v1ZM1080.4,389.8h-1v-1h1v1ZM1074.4,389.8h-4v-1h4v1ZM1070.4,389.8h-4v-1h4v1ZM1061.4,389.8h-1v-1h1v1ZM1055.4,389.8h-4v-1h4v1ZM1051.4,389.8h-4v-1h4v1ZM1042.4,389.8h-1v-1h1v1ZM1036.4,389.8h-4v-1h4v1ZM1032.4,389.8h-4v-1h4v1ZM1023.4,389.8h-1v-1h1v1ZM1017.4,389.8h-4v-1h4v1ZM1013.4,389.8h-4v-1h4v1ZM1004.4,389.8h-1v-1h1v1ZM998.4,389.8h-4v-1h4v1ZM994.4,389.8h-4v-1h4v1ZM985.4,389.8h-1v-1h1v1ZM979.4,389.8h-4v-1h4v1ZM975.4,389.8h-4v-1h4v1ZM966.4,389.8h-1v-1h1v1ZM960.4,389.8h-4v-1h4v1ZM956.4,389.8h-4v-1h4v1ZM947.4,389.8h-1v-1h1v1ZM941.4,389.8h-4v-1h4v1ZM937.4,389.8h-4v-1h4v1ZM928.4,389.8h-1v-1h1v1ZM922.4,389.8h-4v-1h4v1Z"/>
  <path class="st5" d="M1266,84.4h-4v-1h4v1ZM1257,84.4h-1v-1h1v1ZM1251,84.4h-8v-1h8v1ZM1238,84.4h-1v-1h1v1ZM1232,84.4h-8v-1h8v1ZM1219,84.4h-1v-1h1v1ZM1213,84.4h-8v-1h8v1ZM1200,84.4h-1v-1h1v1ZM1194,84.4h-8v-1h8v1ZM1181,84.4h-1v-1h1v1ZM1175,84.4h-8v-1h8v1ZM1162,84.4h-1v-1h1v1ZM1156,84.4h-8v-1h8v1ZM1143,84.4h-1v-1h1v1ZM1137,84.4h-8v-1h8v1ZM1124,84.4h-1v-1h1v1ZM1118,84.4h-8v-1h8v1ZM1105,84.4h-1v-1h1v1ZM1099,84.4h-8v-1h8v1ZM1086,84.4h-1v-1h1v1ZM1080,84.4h-8v-1h8v1ZM1067,84.4h-1v-1h1v1ZM1061,84.4h-8v-1h8v1ZM1048,84.4h-1v-1h1v1ZM1042,84.4h-8v-1h8v1ZM1029,84.4h-1v-1h1v1ZM1023,84.4h-8v-1h8v1ZM1010,84.4h-1v-1h1v1ZM1004,84.4h-8v-1h8v1ZM991,84.4h-1v-1h1v1ZM985,84.4h-8v-1h8v1ZM972,84.4h-1v-1h1v1ZM966,84.4h-8v-1h8v1ZM953,84.4h-1v-1h1v1ZM947,84.4h-8v-1h8v1ZM934,84.4h-1v-1h1v1ZM928,84.4h-8v-1h8v1Z"/>
  <rect class="st5" x="1040.1" y="279" width="34.6" height="1" transform="translate(1870.1 1011.4) rotate(-152.8)"/>
</svg>